<svg width="16" height="16" fill="none" xmlns="http://www.w3.org/2000/svg"><g clip-path="url(#clip0_60447_1063)" fill="#676767"><path d="M15.375 7.375H4.508a.625.625 0 100 1.25h10.867a.625.625 0 100-1.25zm0-4.687H4.508a.625.625 0 100 1.25h10.867a.625.625 0 100-1.25zm0 9.375H4.508a.625.625 0 100 1.25h10.867a.625.625 0 100-1.25zM.844 4.156a.844.844 0 100-1.687.844.844 0 000 1.687zm0 4.688a.844.844 0 100-1.688.844.844 0 000 1.688zm0 4.687a.844.844 0 100-1.687.844.844 0 000 1.687z"/></g><defs><clipPath id="clip0_60447_1063"><path fill="#fff" d="M0 0h16v16H0z"/></clipPath></defs></svg>