<svg width="44" height="47" fill="none" xmlns="http://www.w3.org/2000/svg"><path d="M8.25 26.833a4.59 4.59 0 00-4.583 4.584A4.59 4.59 0 008.25 36a4.59 4.59 0 004.583-4.583 4.59 4.59 0 00-4.583-4.584zm0 7.334a2.753 2.753 0 01-2.75-2.75 2.753 2.753 0 012.75-2.75 2.753 2.753 0 012.75 2.75 2.753 2.753 0 01-2.75 2.75zm27.5-7.334a4.59 4.59 0 00-4.583 4.584A4.59 4.59 0 0035.75 36a4.59 4.59 0 004.583-4.583 4.59 4.59 0 00-4.583-4.584zm0 7.334a2.753 2.753 0 01-2.75-2.75 2.753 2.753 0 012.75-2.75 2.753 2.753 0 012.75 2.75 2.753 2.753 0 01-2.75 2.75z" fill="#4945FF"/><path d="M38.5 21.333h-1.551a2.51 2.51 0 01-1.566-.55l-7.223-5.778A4.608 4.608 0 0025.296 14H12.045c-1.536 0-2.96.763-3.813 2.04l-1.56 2.344a2.51 2.51 0 01-2.09 1.116A4.59 4.59 0 000 24.083v3.667a4.59 4.59 0 004.583 4.583.917.917 0 000-1.833 2.753 2.753 0 01-2.75-2.75v-3.667a2.753 2.753 0 012.75-2.75A4.333 4.333 0 008.197 19.4l1.56-2.341a2.748 2.748 0 012.288-1.225h13.251a2.77 2.77 0 011.72.603l7.223 5.777a4.347 4.347 0 002.712.953H38.5c2.69 0 3.667 2.741 3.667 4.584 0 1.806-1.383 2.75-2.75 2.75a.917.917 0 000 1.833c2.612 0 4.583-1.97 4.583-4.583 0-3.111-1.927-6.417-5.5-6.417z" fill="#4945FF"/><path d="M32.083 30.5H11.917a.917.917 0 000 1.833h20.166a.917.917 0 000-1.833zm-1.833-9.167H22v-2.75a.917.917 0 00-1.833 0v3.667c0 .506.41.917.916.917h9.167a.917.917 0 000-1.834zm-12.833 0h-5.85l1.171-2.339a.916.916 0 10-1.64-.82l-1.834 3.667a.918.918 0 00.82 1.325h7.333a.917.917 0 000-1.833zM24.75 25h-1.833a.917.917 0 000 1.833h1.833a.917.917 0 000-1.833z" fill="#4945FF"/><ellipse cx="21.865" cy="23.071" rx="10" ry="21.857" transform="rotate(40.877 21.865 23.071)" fill="#4945FF" fill-opacity=".1"/></svg>