<svg width="22" height="22" fill="none" xmlns="http://www.w3.org/2000/svg"><g clip-path="url(#clip0_60447_164)"><path d="M6.36 16.299c-.962-.05-.944-1.401 0-1.448 2.67.01 9.716.002 12.473.004.754 0 1.399-.513 1.568-1.247l1.565-6.777c.09-.388 0-.79-.248-1.102a1.291 1.291 0 00-1.016-.494c-1.109 0-10.52-.043-15.341-.062l-.764-2.835a1.56 1.56 0 00-1.504-1.151H.645a.645.645 0 000 1.29h2.448a.27.27 0 01.259.197l2.934 10.889a1.999 1.999 0 00-1.36.598 1.998 1.998 0 00-.58 1.449 2.023 2.023 0 002.014 1.979h.94a2.26 2.26 0 002.039 3.224 2.26 2.26 0 002.039-3.224h4.072a2.26 2.26 0 002.04 3.224 2.26 2.26 0 002.021-3.259.645.645 0 00-.206-1.255H6.36zm3.946 2.257a.968.968 0 01-1.935 0c0-.533.434-.967.967-.967h.002c.533 0 .966.434.966.967zm7.183.967a.968.968 0 01-.016-1.934h.032a.968.968 0 01-.016 1.934zM20.707 6.53c.004.004.003.007.002.01l-.659 2.856h-2.233l.38-2.881 2.5.01c.004 0 .006 0 .01.005zm-6.648 7.035v-2.88h2.287l-.38 2.88h-1.907zm-3.198 0l-.383-2.88h2.29v2.88h-1.907zm-2.969 0H7.89a.35.35 0 01-.336-.257l-.707-2.622h2.33l.383 2.88H7.892zm2.414-4.169l-.388-2.915 2.85.012v2.903h-2.462zm3.753 0V6.498l2.838.011-.38 2.887h-2.458zm-5.443-2.92l.389 2.92H6.499l-.79-2.932 2.907.012zm10.217 7.09h-1.566l.38-2.88h2.105l-.608 2.632a.318.318 0 01-.311.248z" fill="#fff"/></g><defs><clipPath id="clip0_60447_164"><path fill="#fff" d="M0 0h22v22H0z"/></clipPath></defs></svg>