<svg width="24" height="24" fill="none" xmlns="http://www.w3.org/2000/svg"><g clip-path="url(#clip0_60447_14)"><path d="M6.938 17.78c-1.049-.053-1.03-1.528 0-1.58 2.914.011 10.6.004 13.607.006.822 0 1.526-.56 1.71-1.361l1.708-7.394a1.41 1.41 0 00-.27-1.201 1.408 1.408 0 00-1.109-.54c-1.21 0-11.477-.046-16.736-.067L5.015 2.55a1.703 1.703 0 00-1.64-1.255H.702a.704.704 0 000 1.407h2.671c.132 0 .248.089.282.215l3.202 11.879c-.563.02-1.087.25-1.485.653a2.18 2.18 0 00-.632 1.58 2.207 2.207 0 002.197 2.159h1.025a2.465 2.465 0 002.224 3.518 2.465 2.465 0 002.225-3.518h4.442a2.465 2.465 0 002.225 3.517 2.465 2.465 0 002.206-3.555.703.703 0 00-.225-1.37H6.938zm4.305 2.463a1.056 1.056 0 01-2.11 0c0-.582.472-1.055 1.054-1.055h.002c.581 0 1.054.473 1.054 1.055zm7.836 1.055a1.056 1.056 0 01-.017-2.11h.034a1.056 1.056 0 01-.017 2.11zm3.51-14.175c.005.005.004.008.003.012l-.72 3.115h-2.435l.415-3.143 2.727.01c.004 0 .006 0 .01.006zM15.338 14.8v-3.142h2.495l-.415 3.142h-2.08zm-3.489 0l-.418-3.142h2.5V14.8h-2.082zm-3.238 0h-.003a.381.381 0 01-.367-.28l-.77-2.862h2.54l.419 3.142H8.61zm2.633-4.549l-.423-3.18 3.11.013v3.167h-2.687zm4.094 0V7.09l3.096.012-.416 3.15h-2.68zM9.4 7.065l.424 3.185H7.09l-.862-3.198 3.172.013zm11.145 7.734h-1.709l.415-3.142h2.297l-.663 2.871a.347.347 0 01-.34.27z" fill="#4945FF"/></g><defs><clipPath id="clip0_60447_14"><path fill="#fff" d="M0 0h24v24H0z"/></clipPath></defs></svg>