<svg width="16" height="16" fill="none" xmlns="http://www.w3.org/2000/svg"><g clip-path="url(#clip0_60447_1088)"><path d="M14.644 1.676a4.51 4.51 0 00-6.31.001L.98 9.03a3.445 3.445 0 004.872 4.87l6.659-6.658A2.217 2.217 0 009.376 4.11l-6.369 6.368a.579.579 0 00.819.819l6.369-6.369a1.059 1.059 0 011.497 1.498l-6.658 6.658A2.287 2.287 0 011.8 9.849l7.352-7.353a3.354 3.354 0 014.745 4.743l-7.353 7.353a.579.579 0 10.817.816l7.353-7.353a4.51 4.51 0 00-.07-6.379z" fill="#676767"/></g><defs><clipPath id="clip0_60447_1088"><path fill="#fff" d="M0 0h16v16H0z"/></clipPath></defs></svg>