<svg width="22" height="24" fill="none" xmlns="http://www.w3.org/2000/svg"><ellipse opacity=".18" cx="10.933" cy="11.536" rx="5" ry="10.929" transform="rotate(40.877 10.933 11.536)" fill="#4945FF" fill-opacity=".4"/><path d="M13.563 15.766l-2.788-2.091v-4.26a.774.774 0 10-1.55 0v4.647c0 .244.115.474.31.62l3.099 2.324a.77.77 0 001.084-.156.773.773 0 00-.155-1.084z" fill="#4945FF"/><path d="M10 4C4.486 4 0 8.486 0 14s4.486 10 10 10 10-4.486 10-10S15.514 4 10 4zm0 18.45c-4.66 0-8.45-3.79-8.45-8.45 0-4.66 3.79-8.45 8.45-8.45 4.66 0 8.45 3.79 8.45 8.45 0 4.66-3.79 8.45-8.45 8.45z" fill="#4945FF"/></svg>