<svg width="40" height="40" fill="none" xmlns="http://www.w3.org/2000/svg"><path d="M20 30.156a.782.782 0 100 1.563.782.782 0 000-1.563z" fill="#4945FF"/><path d="M36.647 4.795c-1.922-.775-4.422-1.201-7.038-1.201-2.616 0-5.115.426-7.038 1.2-1.136.458-2.003 1.017-2.571 1.645-.568-.628-1.435-1.187-2.571-1.644-1.923-.775-4.422-1.201-7.038-1.201-2.616 0-5.116.426-7.038 1.2C1.19 5.666 0 6.905 0 8.282v18.75c0 1.378 1.19 2.616 3.353 3.487 1.788.72 4.075 1.139 6.49 1.194v.007c0 2.672 4.367 4.687 10.157 4.687s10.156-2.015 10.156-4.687v-.007c2.416-.055 4.703-.474 6.491-1.194 2.162-.87 3.353-2.11 3.353-3.487V8.281c0-1.377-1.19-2.616-3.353-3.486zm1.79 17.549c0 .667-.91 1.447-2.373 2.037-1.585.638-3.713 1.024-5.908 1.08v-3.124c2.416-.055 4.703-.474 6.492-1.194a8.51 8.51 0 001.79-.957v2.158zM19.22 12.969c0 .667-.91 1.447-2.374 2.037-1.716.691-4.069 1.088-6.454 1.088-2.386 0-4.739-.397-6.455-1.088-1.464-.59-2.373-1.37-2.373-2.037V10.81c.49.353 1.088.674 1.79.957 1.922.774 4.422 1.2 7.038 1.2 2.616 0 5.115-.426 7.038-1.2a8.509 8.509 0 001.79-.957v2.158zM3.353 16.456c1.922.774 4.422 1.2 7.038 1.2 2.616 0 5.115-.426 7.038-1.2a8.509 8.509 0 001.79-.957v2.171c-2.021.068-3.96.4-5.527.952-1.573.554-2.704 1.293-3.32 2.159-2.379-.002-4.724-.398-6.436-1.087-1.464-.59-2.373-1.37-2.373-2.038V15.5c.49.352 1.088.674 1.79.957zm-1.79 3.73a8.51 8.51 0 001.79.957c1.788.72 4.075 1.139 6.491 1.194v3.124c-2.195-.055-4.323-.442-5.908-1.08-1.464-.59-2.373-1.37-2.373-2.037v-2.158zm9.926 1.774c.579-1.348 3.92-2.741 8.511-2.741 4.59 0 7.932 1.393 8.51 2.74a.966.966 0 01.084.385c0 .687-.847 1.45-2.266 2.04-1.677.7-3.925 1.085-6.328 1.085-2.403 0-4.65-.385-6.329-1.084-1.418-.591-2.265-1.354-2.265-2.041 0-.128.027-.254.083-.384zm26.948-4.304c0 .667-.91 1.448-2.373 2.038-1.712.689-4.057 1.085-6.436 1.087-.615-.866-1.747-1.605-3.32-2.159-1.567-.552-3.506-.884-5.527-.952V15.5c.49.352 1.088.674 1.79.957 1.923.774 4.422 1.2 7.038 1.2 2.616 0 5.116-.426 7.038-1.2a8.506 8.506 0 001.79-.957v2.157zm0-4.687c0 .667-.91 1.447-2.373 2.037-1.717.691-4.069 1.088-6.455 1.088-2.385 0-4.738-.397-6.454-1.088-1.464-.59-2.374-1.37-2.374-2.037V10.81c.49.353 1.088.674 1.79.957 1.923.774 4.422 1.2 7.038 1.2 2.616 0 5.116-.426 7.038-1.2a8.506 8.506 0 001.79-.957v2.158zM23.155 6.244c1.716-.691 4.069-1.088 6.454-1.088 2.386 0 4.738.397 6.455 1.088 1.464.59 2.373 1.37 2.373 2.037 0 .667-.91 1.448-2.373 2.038-1.717.69-4.069 1.087-6.455 1.087-2.385 0-4.738-.396-6.454-1.087-1.464-.59-2.374-1.37-2.374-2.038 0-.667.91-1.447 2.374-2.037zm-19.219 0c1.716-.691 4.069-1.088 6.455-1.088 2.385 0 4.738.397 6.454 1.088 1.464.59 2.374 1.37 2.374 2.037 0 .667-.91 1.448-2.374 2.038-1.716.69-4.069 1.087-6.454 1.087-2.386 0-4.739-.396-6.455-1.087-1.464-.59-2.373-1.37-2.373-2.038 0-.667.91-1.447 2.373-2.037zm0 22.825c-1.464-.59-2.373-1.37-2.373-2.038v-2.157a8.51 8.51 0 001.79.957c1.788.72 4.075 1.138 6.49 1.194v3.124c-2.194-.056-4.322-.442-5.907-1.08zm22.392 4.69c-1.677.7-3.925 1.085-6.328 1.085-2.403 0-4.65-.385-6.329-1.084-1.418-.591-2.265-1.354-2.265-2.041v-2.112c.177.128.373.255.59.38 1.213.703 2.864 1.222 4.773 1.502a.781.781 0 00.227-1.546c-3.63-.533-5.59-1.898-5.59-2.912v-2.118c1.768 1.293 4.89 2.118 8.594 2.118 3.704 0 6.826-.825 8.594-2.118v2.118c0 1.014-1.96 2.38-5.59 2.912a.781.781 0 00.227 1.546c1.91-.28 3.56-.8 4.773-1.501.217-.126.413-.253.59-.381v2.112c0 .687-.847 1.45-2.266 2.04zm9.736-4.69c-1.585.638-3.713 1.024-5.908 1.08v-3.125c2.416-.055 4.703-.474 6.491-1.194a8.506 8.506 0 001.79-.956v2.157c0 .667-.91 1.448-2.373 2.038z" fill="#4945FF"/></svg>