<svg width="50" height="55" fill="none" xmlns="http://www.w3.org/2000/svg"><ellipse rx="10.761" ry="24.051" transform="matrix(.70266 .71152 -.59473 .80393 25.865 27.478)" fill="#4945FF" fill-opacity=".1"/><path d="M42.594 47.108a2.732 2.732 0 01-2.73-2.733v-9.343a.676.676 0 011.352 0v9.343a1.378 1.378 0 102.756 0v-16.26a.676.676 0 011.352 0v16.26a2.732 2.732 0 01-2.73 2.733z" fill="#4945FF"/><path d="M46.311 35.58a2.34 2.34 0 01-2.339-2.337v-5.129a.676.676 0 011.352 0v5.129a.988.988 0 001.974 0v-8.274a2.692 2.692 0 00-2.689-2.689h-8.137a2.692 2.692 0 00-2.688 2.69v8.273a.987.987 0 001.974 0v-5.129a.676.676 0 011.351 0v5.129a2.34 2.34 0 01-4.676 0v-8.274a4.045 4.045 0 014.04-4.04h8.136a4.045 4.045 0 014.04 4.04v8.274a2.34 2.34 0 01-2.338 2.337z" fill="#4945FF"/><path d="M38.486 47.108a2.732 2.732 0 01-2.729-2.73V28.114a.676.676 0 011.352 0v16.261a1.376 1.376 0 001.378 1.409 1.378 1.378 0 001.378-1.409v-9.343a.676.676 0 011.351 0v9.343a2.733 2.733 0 01-2.73 2.733zm2.054-27.702a4.257 4.257 0 110-8.514 4.257 4.257 0 010 8.514zm0-7.163a2.905 2.905 0 102.054.854 2.906 2.906 0 00-2.053-.85v-.004zM7.405 47.108a2.732 2.732 0 01-2.729-2.73V28.114a.676.676 0 111.352 0v16.261a1.378 1.378 0 102.756 0v-9.343a.676.676 0 111.351 0v9.343a2.733 2.733 0 01-2.73 2.733z" fill="#4945FF"/><path d="M15.23 35.58a2.34 2.34 0 01-2.34-2.337v-5.129a.676.676 0 011.352 0v5.129a.987.987 0 001.974 0v-8.274a2.692 2.692 0 00-2.689-2.689H5.391a2.692 2.692 0 00-2.689 2.69v8.273a.987.987 0 001.974 0v-5.129a.675.675 0 111.351 0v5.129a2.339 2.339 0 01-4.676 0v-8.274a4.045 4.045 0 014.04-4.04h8.136a4.045 4.045 0 014.04 4.04v8.274a2.34 2.34 0 01-2.338 2.337z" fill="#4945FF"/><path d="M11.513 47.108a2.732 2.732 0 01-2.73-2.733v-9.343a.676.676 0 111.352 0v9.343a1.38 1.38 0 102.756 0v-16.26a.676.676 0 011.351 0v16.26a2.732 2.732 0 01-2.729 2.733zM9.46 19.406a4.257 4.257 0 110-8.515 4.257 4.257 0 010 8.515zm0-7.163a2.905 2.905 0 102.053.854 2.905 2.905 0 00-2.054-.85v-.004zm23.31 1.892H17.23a.675.675 0 110-1.351h15.54a.676.676 0 010 1.351z" fill="#4945FF"/><path d="M31.186 15.993a.676.676 0 01-.51-1.114l1.206-1.42-1.207-1.418a.676.676 0 011.029-.879l1.584 1.858a.676.676 0 010 .879L31.7 15.757a.672.672 0 01-.514.236zm-12.373 0a.671.671 0 01-.514-.238l-1.584-1.858a.676.676 0 010-.878l1.584-1.858a.676.676 0 111.029.878l-1.21 1.42 1.21 1.42a.676.676 0 01-.515 1.113v.001z" fill="#4945FF"/></svg>