<svg width="40" height="40" fill="none" xmlns="http://www.w3.org/2000/svg"><ellipse rx="8.945" ry="19.402" transform="matrix(.77316 .6342 -.67435 .73841 20 20)" fill="#4945FF" fill-opacity=".1"/><g clip-path="url(#clip0_60447_1804)" fill="#4945FF"><path d="M23.538 12.881c-.74-1.03-1.392-1.978-2-2.844a1.29 1.29 0 00-.349-.33c-.521-.33-1.217-.164-1.565.33-.566.866-1.218 1.772-2 2.844-3.436 4.781-8.568 11.994-8.568 16.115 0 3.009 1.305 5.73 3.392 7.707a11.952 11.952 0 008.133 3.174c3.174 0 6.044-1.236 8.132-3.215 2.087-1.978 3.392-4.698 3.392-7.707 0-4.122-5.132-11.293-8.567-16.074zm3.61 22.297c-1.697 1.608-4.002 2.556-6.567 2.556a9.653 9.653 0 01-6.567-2.556c-1.696-1.607-2.696-3.791-2.696-6.223 0-3.462 4.914-10.345 8.175-14.92.392-.536.74-1.072 1.088-1.525.347.453.695.99 1.087 1.525 3.261 4.616 8.175 11.458 8.175 14.92 0 2.432-1.043 4.616-2.696 6.224z"/><path d="M27.321 28.213c-.609-.041-1.13.412-1.174.99a5.111 5.111 0 01-.826 2.513 5.174 5.174 0 01-2 1.814c-.523.288-.74.948-.436 1.442.348.577 1.044.742 1.566.454a7.367 7.367 0 002.783-2.556 6.752 6.752 0 001.13-3.544c.044-.577-.434-1.072-1.043-1.113z"/></g><defs><clipPath id="clip0_60447_1804"><path fill="#fff" transform="translate(4.573 9.536)" d="M0 0h32.014v30.341H0z"/></clipPath></defs></svg>