<svg width="24" height="24" fill="none" xmlns="http://www.w3.org/2000/svg"><path d="M22.3 3.375c-1.135-1.107-2.702-1.66-4.702-1.66-.553 0-1.118.095-1.694.287a6.847 6.847 0 00-1.607.777c-.496.326-.922.632-1.28.917-.356.286-.696.59-1.017.911-.322-.321-.66-.625-1.018-.91a17.197 17.197 0 00-1.279-.918 6.856 6.856 0 00-1.607-.777 5.342 5.342 0 00-1.694-.288c-2 0-3.567.554-4.701 1.661C.567 4.482 0 6.018 0 7.982 0 8.58.105 9.197.315 9.83c.21.634.449 1.174.716 1.62.268.447.572.882.911 1.306.34.425.587.717.743.877.157.161.28.277.369.349l8.357 8.063c.16.16.357.24.589.24.232 0 .429-.08.59-.24l8.343-8.037C22.978 11.964 24 9.955 24 7.982c0-1.965-.567-3.5-1.7-4.607zm-2.532 9.375L12 20.236l-7.781-7.5c-1.67-1.67-2.504-3.254-2.504-4.754 0-.723.096-1.362.287-1.915.192-.554.438-.994.737-1.32.3-.325.663-.59 1.091-.796a4.839 4.839 0 011.26-.415 7.67 7.67 0 011.312-.107c.464 0 .964.113 1.5.341a6.847 6.847 0 011.48.857c.45.344.837.665 1.158.964.322.3.59.574.804.824.16.197.38.295.656.295a.803.803 0 00.656-.295c.215-.25.482-.524.804-.824.321-.299.707-.62 1.158-.964.451-.344.944-.63 1.48-.857.536-.228 1.036-.341 1.5-.341.465 0 .902.035 1.313.107.41.07.83.21 1.259.415.428.205.792.47 1.091.797.3.325.545.765.737 1.319.192.553.288 1.192.288 1.915 0 1.5-.84 3.09-2.518 4.768z" fill="#F34141"/></svg>