<svg width="30" height="30" fill="none" xmlns="http://www.w3.org/2000/svg"><path d="M26.934 4.858L15.449.09a1.172 1.172 0 00-.898 0L3.066 4.858a1.172 1.172 0 00-.722 1.082v5.796a19.625 19.625 0 0012.213 18.177c.284.116.602.116.886 0a19.625 19.625 0 0012.213-18.177V5.94c0-.474-.285-.9-.722-1.082zm-1.622 6.878A17.288 17.288 0 0115 27.556a17.286 17.286 0 01-10.313-15.82V6.722L15 2.441l10.313 4.281v5.014zm-11.607 3.95l5.037-5.036a1.172 1.172 0 111.657 1.657l-5.866 5.865a1.17 1.17 0 01-1.657 0l-3.275-3.275a1.172 1.172 0 111.657-1.657l2.447 2.447z" fill="#4945FF"/></svg>