<svg width="48" height="55" fill="none" xmlns="http://www.w3.org/2000/svg"><ellipse rx="10.761" ry="24.051" transform="matrix(.70266 .71152 -.59473 .80393 21.865 27.138)" fill="#4945FF" fill-opacity=".1"/><g clip-path="url(#clip0_60447_1860)" fill="#4945FF"><path d="M22.674 21.062h.021c.733 0 1.43-.29 1.96-.82a2.87 2.87 0 00.845-2.018c0-1.008-.6-1.966-.956-2.448-.454-.61-1.143-1.338-1.856-1.338-.713 0-1.402.728-1.856 1.338-.357.482-.957 1.44-.957 2.448 0 .748.308 1.483.845 2.018.532.53 1.227.82 1.954.82zm.014-4.587c.391.4.937 1.205.937 1.75a.983.983 0 01-.293.689.908.908 0 01-.644.273h-.007a.904.904 0 01-.638-.273.983.983 0 01-.293-.69c0-.544.546-1.35.938-1.749z"/><path d="M47.367 19.909a.937.937 0 00-.81-.467c-.014 0-1.37-.1-1.37-.937a.938.938 0 00-.937-.938v-.937a2.816 2.816 0 00-2.813-2.813v-2.191h.938c.518 0 .938-.42.938-.938v-3.75a.938.938 0 00-.938-.937H24.562a4.65 4.65 0 00-3.312 1.375 4.656 4.656 0 00-1.375 3.312v1.875c0 .518.42.938.938.938h3.75c.517 0 .937-.42.937-.938v-.937h10.312v2.191A2.816 2.816 0 0033 16.63v.937a.938.938 0 00-.938.938c0 .838-1.355.937-1.369.937a.938.938 0 00-.81.466 4.671 4.671 0 00-.633 2.347v1.677l-2.808.906c-.233-1.27-1.342-2.506-3.2-2.58l-2.104-.086a.937.937 0 10-.076 1.873l2.105.086c.986.04 1.441.65 1.447 1.202.006.613-.507 1.011-1.373 1.063l-6.925.419a.938.938 0 10.113 1.871l6.925-.418c1.262-.076 2.12-.611 2.614-1.307l10.084-3.253c1.042-.276 2.835-.544 3.315.694.041.12-.047.237-.264.345l-12.52 6.02c-2.123.767-6.823 1.082-10.605 1.335-1.674.112-3.256.218-4.452.35a.94.94 0 00-.253.065l-9.398 3.864v-7.879h3.811c.518 0 .938-.42.938-.937 0-1.09.453-2.15 1.244-2.91.737-.707 1.683-1.075 2.661-1.036l2.104.085a.937.937 0 10.076-1.873l-2.104-.085c-1.494-.061-2.927.492-4.036 1.558a5.95 5.95 0 00-1.744 3.323H.937a.937.937 0 00-.937.938V37.78a.938.938 0 001.294.867l10.569-4.345c1.14-.122 2.648-.222 4.24-.33 4.13-.276 8.813-.59 11.17-1.461a.926.926 0 00.082-.035l1.895-.91v19.622a2.816 2.816 0 002.813 2.813h13.124A2.816 2.816 0 0048 51.188V22.255a4.67 4.67 0 00-.633-2.346zM24.563 9.75a.937.937 0 00-.938.938v.937H21.75v-.938c0-.749.293-1.454.826-1.986a2.792 2.792 0 011.986-.826h16.876V9.75H24.563zm15 1.875v2.191h-1.876v-2.191h1.876zm-4.688 5.941v-.937c0-.517.42-.938.938-.938h5.624c.518 0 .938.42.938.938v.937h-7.5zm.67 4.336a.861.861 0 00-.045.014l-4.375 1.41v-1.072c0-.34.063-.677.183-.993.984-.175 2.057-.761 2.462-1.82h9.71c.405 1.059 1.478 1.645 2.462 1.82a2.8 2.8 0 01.183.993v4.154h-6.153c1.25-.644 1.473-1.838 1.144-2.683-.74-1.91-2.77-2.574-5.571-1.823zm.53 6.38h10.05v15.001h-15v-12.62l4.95-2.38zm9.112 23.843H32.063a.939.939 0 01-.938-.938V45.16h15v6.03c0 .516-.42.937-.938.937z"/><path d="M33.938 38.596h1.874v1.875c0 .518.42.937.938.937h3.75c.518 0 .938-.42.938-.937v-1.875h1.874c.518 0 .938-.42.938-.938v-3.75a.938.938 0 00-.938-.937h-1.874v-1.875a.938.938 0 00-.938-.938h-3.75a.938.938 0 00-.938.938v1.875h-1.874a.938.938 0 00-.938.937v3.75c0 .518.42.938.938.938zm.937-3.75h1.875c.518 0 .938-.42.938-.938v-1.875h1.874v1.875c0 .518.42.938.938.938h1.875v1.875H40.5a.938.938 0 00-.938.937v1.875h-1.874v-1.875a.938.938 0 00-.938-.937h-1.875v-1.875zM16.886 23.875a.937.937 0 100-1.875.937.937 0 100 1.875z"/></g><defs><clipPath id="clip0_60447_1860"><path fill="#fff" transform="translate(0 6)" d="M0 0h48v48H0z"/></clipPath></defs></svg>