<svg width="155" height="26" fill="none" xmlns="http://www.w3.org/2000/svg"><path d="M15.24 11.08c1.16.44 2.07 1.1 2.73 1.98.66.88.99 1.89.99 3.03 0 1.3-.44 2.43-1.32 3.39-.88.96-2.07 1.7-3.57 2.22-1.5.5-3.15.75-4.95.75-1.42 0-2.87-.17-4.35-.51a18.54 18.54 0 01-4.2-1.53l1.77-4.14c.94.48 1.94.85 3 1.11 1.08.24 2.12.36 3.12.36 1.32 0 2.4-.21 3.24-.63.84-.44 1.26-1.05 1.26-1.83 0-.62-.26-1.08-.78-1.38-.52-.3-1.22-.45-2.1-.45H4.71V9.1H9.6c.8 0 1.42-.16 1.86-.48.44-.32.66-.75.66-1.29 0-.68-.34-1.2-1.02-1.56-.68-.38-1.56-.57-2.64-.57-.88 0-1.81.13-2.79.39-.98.24-1.91.59-2.79 1.05l-1.74-4.5C3.38 1.06 5.84.52 8.52.52c1.72 0 3.31.25 4.77.75 1.48.48 2.65 1.18 3.51 2.1.88.92 1.32 2.01 1.32 3.27 0 .98-.26 1.86-.78 2.64-.5.76-1.2 1.36-2.1 1.8zM41.102 22l-.03-11.13-5.4 9.06h-2.64l-5.4-8.82V22h-5.46V1h4.89l7.38 12.12L41.642 1h4.89l.06 21h-5.49z" fill="#3C39D0"/><path d="M57.359 5.47c2.7 0 4.76.62 6.18 1.86 1.42 1.22 2.13 3.1 2.13 5.64V22h-5.31v-2.1c-.82 1.58-2.42 2.37-4.8 2.37-1.26 0-2.35-.22-3.27-.66-.92-.44-1.62-1.03-2.1-1.77-.46-.76-.69-1.62-.69-2.58 0-1.54.59-2.73 1.77-3.57 1.18-.86 3-1.29 5.46-1.29h3.24c-.1-1.72-1.25-2.58-3.45-2.58-.78 0-1.57.13-2.37.39-.8.24-1.48.58-2.04 1.02l-1.92-3.87c.9-.6 1.99-1.06 3.27-1.38 1.3-.34 2.6-.51 3.9-.51zm-.21 13.2c.66 0 1.24-.16 1.74-.48.5-.32.86-.79 1.08-1.41v-1.41h-2.46c-1.66 0-2.49.55-2.49 1.65 0 .5.19.9.57 1.2.38.3.9.45 1.56.45zm20.109 3.6c-1.8 0-3.41-.36-4.83-1.08-1.42-.72-2.53-1.72-3.33-3-.78-1.28-1.17-2.73-1.17-4.35 0-1.62.39-3.06 1.17-4.32.8-1.28 1.91-2.27 3.33-2.97 1.42-.72 3.03-1.08 4.83-1.08 1.84 0 3.43.4 4.77 1.2 1.34.78 2.29 1.87 2.85 3.27l-4.41 2.25c-.74-1.46-1.82-2.19-3.24-2.19-1.02 0-1.87.34-2.55 1.02-.66.68-.99 1.62-.99 2.82 0 1.22.33 2.18.99 2.88.68.68 1.53 1.02 2.55 1.02 1.42 0 2.5-.73 3.24-2.19l4.41 2.25c-.56 1.4-1.51 2.5-2.85 3.3-1.34.78-2.93 1.17-4.77 1.17zm17.624-6.06h-1.92V22h-5.7V5.74h5.7v6h2.04l3.99-6h6.03l-5.46 7.8 5.82 8.46h-6.72l-3.78-5.79zm12.39-10.47h5.67v8.52l6.81-8.52h5.25V22h-5.7v-8.55l-6.75 8.55h-5.28V5.74zm22 16.404c-.492 0-.906-.168-1.242-.504-.336-.336-.504-.756-.504-1.26 0-.516.168-.93.504-1.242a1.72 1.72 0 011.242-.486c.492 0 .906.162 1.242.486.336.312.504.726.504 1.242 0 .504-.168.924-.504 1.26-.336.336-.75.504-1.242.504zm9.409-9.972c.9 0 1.716.21 2.448.63.744.408 1.326.99 1.746 1.746.42.744.63 1.614.63 2.61 0 .996-.21 1.872-.63 2.628a4.521 4.521 0 01-1.746 1.746c-.732.408-1.548.612-2.448.612-1.236 0-2.208-.39-2.916-1.17v4.518h-2.808V12.316h2.682v1.116c.696-.84 1.71-1.26 3.042-1.26zm-.486 7.668c.72 0 1.308-.24 1.764-.72.468-.492.702-1.146.702-1.962 0-.816-.234-1.464-.702-1.944-.456-.492-1.044-.738-1.764-.738s-1.314.246-1.782.738c-.456.48-.684 1.128-.684 1.944 0 .816.228 1.47.684 1.962.468.48 1.062.72 1.782.72zm16.716-7.524l-4.374 10.278c-.444 1.116-.996 1.902-1.656 2.358-.648.456-1.434.684-2.358.684a4.916 4.916 0 01-1.494-.234c-.492-.156-.894-.372-1.206-.648l1.026-1.998a2.438 2.438 0 001.584.612c.384 0 .696-.096.936-.288.24-.18.456-.486.648-.918l.036-.09-4.194-9.756h2.898l2.718 6.57 2.736-6.57h2.7z" fill="#2B2A2A"/></svg>