<svg width="22" height="24" fill="none" xmlns="http://www.w3.org/2000/svg"><ellipse opacity=".18" cx="10.933" cy="11.536" rx="5" ry="10.929" transform="rotate(40.877 10.933 11.536)" fill="#4945FF" fill-opacity=".4"/><path d="M11 4a7.04 7.04 0 00-7.031 7.031c0 1.31.363 2.588 1.05 3.698l5.58 8.994a.586.586 0 00.499.277h.004a.586.586 0 00.498-.285l5.44-9.081a7.023 7.023 0 00.991-3.603A7.04 7.04 0 0011 4zm5.034 10.032l-4.945 8.256-5.075-8.177a5.853 5.853 0 01-.881-3.08c0-3.23 2.636-5.867 5.867-5.867 3.23 0 5.863 2.636 5.863 5.867 0 1.06-.29 2.097-.83 3.001z" fill="#4945FF"/><path d="M11 7.516a3.52 3.52 0 00-3.516 3.515A3.511 3.511 0 0011 14.547a3.509 3.509 0 003.516-3.516A3.52 3.52 0 0011 7.516zm0 5.867a2.353 2.353 0 01-2.352-2.352A2.36 2.36 0 0111 8.68a2.356 2.356 0 012.348 2.351A2.349 2.349 0 0111 13.383z" fill="#4945FF"/></svg>