<svg width="40" height="40" fill="none" xmlns="http://www.w3.org/2000/svg"><path d="M37.237 3.65l-.887-.887a5.625 5.625 0 00-7.95 0l-3.094 3.093L24.27 4.82a1.891 1.891 0 00-2.381-.225L16.611 8.18a31.82 31.82 0 00-8.43 8.432l-3.588 5.274a1.891 1.891 0 00.225 2.382l1.037 1.037L2.762 28.4a5.625 5.625 0 000 7.95l.888.887a5.628 5.628 0 007.95 0l3.094-3.093 1.037 1.037a1.876 1.876 0 001.332.544 1.89 1.89 0 001.05-.319l5.274-3.587a31.82 31.82 0 008.432-8.431l3.587-5.276a1.898 1.898 0 00-.225-2.38l-1.037-1.038 3.093-3.094a5.625 5.625 0 000-7.95zM10.72 36.35a4.38 4.38 0 01-6.188 0l-.881-.881a4.38 4.38 0 010-6.188l3.094-3.093.437.443-3.094 3.094a3.75 3.75 0 000 5.3l.888.888a3.757 3.757 0 005.3 0l3.094-3.094.444.437-3.094 3.094zm-2.65-8.838l4.418 4.42-3.093 3.093a2.505 2.505 0 01-3.538 0l-.881-.881a2.505 2.505 0 010-3.538l3.094-3.094zM34.294 16.62a.624.624 0 01.075.794l-3.581 5.268a30.677 30.677 0 01-8.107 8.107l-5.268 3.58a.626.626 0 01-.794-.074l-2.806-2.8v-.006l-2.65-2.65-5.457-5.457a.625.625 0 01-.075-.794l3.581-5.268a30.677 30.677 0 018.107-8.106l5.268-3.582a.611.611 0 01.357-.106c.164 0 .32.066.437.181l2.806 2.8v.007l8.107 8.106zm-6.781-8.55l3.093-3.094a2.505 2.505 0 013.538 0l.881.881a2.505 2.505 0 010 3.538l-3.094 3.094-4.419-4.42zm5.743 5.743l-.437-.443 3.093-3.094a3.75 3.75 0 000-5.3l-.887-.887a3.757 3.757 0 00-5.3 0L26.631 7.18l-.444-.437 3.094-3.094a4.38 4.38 0 016.188 0l.881.881a4.38 4.38 0 010 6.188l-3.094 3.094z" fill="#4945FF"/><path d="M28.397 14.255a.625.625 0 00-.884 0L14.255 27.513a.625.625 0 10.884.884l13.258-13.258a.625.625 0 000-.884zm-2.652-2.652a.625.625 0 00-.884 0L11.603 24.861a.625.625 0 10.884.884l13.258-13.258a.625.625 0 000-.884zm-2.652-2.652a.625.625 0 00-.884 0L8.951 22.21a.625.625 0 10.884.884L23.093 9.835a.625.625 0 000-.884zm-6.186 21.214a.626.626 0 10.884.884L31.049 17.79a.625.625 0 10-.884-.884L16.907 30.165z" fill="#4945FF"/></svg>