<svg width="66" height="71" fill="none" xmlns="http://www.w3.org/2000/svg"><ellipse cx="32.798" cy="34.606" rx="15" ry="32.786" transform="rotate(40.877 32.798 34.606)" fill="#4945FF" fill-opacity=".1"/><path d="M56.202 21.019l-1.22-1.22a7.735 7.735 0 00-10.932 0l-4.254 4.253-1.427-1.426a2.6 2.6 0 00-3.274-.31l-7.253 4.933A43.753 43.753 0 0016.25 38.842l-4.933 7.253a2.6 2.6 0 00.31 3.275l1.426 1.426-4.254 4.254a7.734 7.734 0 000 10.931l1.22 1.22a7.739 7.739 0 0010.932 0l4.254-4.253 1.426 1.426a2.577 2.577 0 001.83.748 2.61 2.61 0 001.445-.438l7.253-4.933A43.752 43.752 0 0048.75 48.158l4.933-7.253a2.61 2.61 0 00-.31-3.275l-1.426-1.426 4.254-4.254a7.734 7.734 0 000-10.931zM19.738 65.98a6.022 6.022 0 01-8.508 0l-1.21-1.21a6.022 6.022 0 010-8.507l4.254-4.254.601.61-4.254 4.254a5.156 5.156 0 000 7.287l1.22 1.22a5.166 5.166 0 007.288 0l4.254-4.253.61.601-4.254 4.254zm-3.644-12.15l6.076 6.076-4.254 4.253a3.445 3.445 0 01-4.864 0l-1.211-1.211a3.445 3.445 0 010-4.864l4.253-4.254zm36.06-14.98a.86.86 0 01.103 1.092l-4.924 7.245a42.18 42.18 0 01-11.146 11.146l-7.245 4.924a.86.86 0 01-1.091-.103l-3.859-3.85v-.009l-3.644-3.643-7.502-7.503a.86.86 0 01-.103-1.091l4.924-7.245a42.178 42.178 0 0111.146-11.146l7.245-4.924a.84.84 0 01.49-.146.85.85 0 01.601.25l3.859 3.85v.008L52.154 38.85zM42.83 27.095l4.254-4.253a3.444 3.444 0 014.864 0l1.211 1.211a3.445 3.445 0 010 4.864l-4.254 4.254-6.075-6.076zm7.897 7.898l-.601-.61 4.254-4.254a5.156 5.156 0 000-7.287l-1.22-1.22a5.166 5.166 0 00-7.288 0l-4.254 4.253-.61-.601 4.254-4.254a6.021 6.021 0 018.507 0l1.212 1.212a6.021 6.021 0 010 8.507l-4.254 4.254z" fill="#4945FF"/><path d="M44.046 35.6a.86.86 0 00-1.216 0L24.6 53.83a.858.858 0 101.216 1.216l18.23-18.23a.86.86 0 000-1.215zM40.4 31.954a.86.86 0 00-1.216 0l-18.23 18.23A.858.858 0 1022.17 51.4L40.4 33.17a.86.86 0 000-1.215zm-3.647-3.646a.86.86 0 00-1.215 0l-18.23 18.23a.858.858 0 101.215 1.216l18.23-18.23a.86.86 0 000-1.216zm-8.506 29.169a.862.862 0 00-.01 1.226.86.86 0 001.225-.011l18.23-18.23a.858.858 0 10-1.215-1.216l-18.23 18.23z" fill="#4945FF"/></svg>