<svg width="40" height="40" fill="none" xmlns="http://www.w3.org/2000/svg"><g clip-path="url(#clip0_60447_1782)" fill="#4945FF"><path d="M39.99 20a.781.781 0 00-.42-.693l-7.533-3.919 7.533-3.92a.781.781 0 000-1.385l-6.488-3.376a.78.78 0 10-.721 1.386l5.157 2.683L20 19.89 2.483 10.776 20 1.66l6.127 3.188a.78.78 0 00.721-1.385L20.36.088a.781.781 0 00-.72 0L.43 10.083a.78.78 0 000 1.386l7.533 3.919-7.533 3.92a.78.78 0 000 1.385l7.533 3.919-7.533 3.92a.78.78 0 000 1.385l19.21 9.995a.78.78 0 00.72 0l19.21-9.995a.781.781 0 000-1.386l-7.533-3.919 7.533-3.92a.781.781 0 00.42-.692zm-19.63 1.464l9.986-5.196 2.328 1.212-17.49 9.129-3.116-1.621 7.172-3.732.4.208a.78.78 0 00.72 0zm-2.812-1.088l-7.172 3.731-3.1-1.613 7.171-3.732 3.101 1.613zm-7.893-4.108l3.1 1.614-7.171 3.731L2.483 20l7.172-3.732zm27.863 12.956L20 38.34 2.483 29.224l7.172-3.732 9.985 5.196a.782.782 0 00.72 0l9.986-5.196 7.172 3.732zM20 29.114l-3.126-1.626 17.49-9.129L37.518 20 20 29.115z"/><path d="M29.605 6.56a.786.786 0 00.552-.23.787.787 0 00.229-.552.787.787 0 00-.23-.552.786.786 0 00-.551-.228.787.787 0 00-.552.228.787.787 0 00-.229.552c0 .206.083.407.229.552a.787.787 0 00.552.23z"/></g><defs><clipPath id="clip0_60447_1782"><path fill="#fff" d="M0 0h40v40H0z"/></clipPath></defs></svg>