<svg width="21" height="21" fill="none" xmlns="http://www.w3.org/2000/svg"><path d="M17.196 8.259a.84.84 0 01-.24.603l-7.273 7.272a.883.883 0 01-.616.254.876.876 0 01-.603-.254l-4.848-4.848a.84.84 0 01-.241-.603.87.87 0 01.241-.616l1.219-1.205a.852.852 0 01.603-.255c.227 0 .441.094.602.255l3.027 3.026 5.464-5.45a.852.852 0 01.603-.255c.228 0 .442.094.603.255l1.218 1.205a.87.87 0 01.241.616zm3.375 2.17C20.571 4.75 15.964.143 10.286.143 4.607.143 0 4.75 0 10.429c0 5.678 4.607 10.285 10.286 10.285 5.678 0 10.285-4.607 10.285-10.285z" fill="#4945FF"/></svg>