<svg width="66" height="70" fill="none" xmlns="http://www.w3.org/2000/svg"><ellipse cx="32.798" cy="34.606" rx="15" ry="32.786" transform="rotate(40.877 32.798 34.606)" fill="#4945FF" fill-opacity=".1"/><g clip-path="url(#clip0_60447_788)" fill="#4945FF"><path d="M57.651 36.962l-5.586-14.524a5.328 5.328 0 00-7.007-3.007L17.142 31.003a5.303 5.303 0 00-2.946 6.785l.768 2.05h-1.76A5.209 5.209 0 008 45.04v18.732a5.209 5.209 0 005.203 5.203h35.381a5.21 5.21 0 005.204-5.203V45.04a5.117 5.117 0 00-.075-.842l.966-.391c2.682-1.1 4-4.135 2.972-6.845zm-44.448 4.54h35.381a3.533 3.533 0 013.518 3.33H9.686a3.533 3.533 0 013.517-3.33zm8.368-5.015l5.564-2.783 1.144 2.862-5.564 2.782-1.144-2.86zm30.552 27.285a3.542 3.542 0 01-3.539 3.538h-35.38a3.542 3.542 0 01-3.539-3.538V53.157h42.458v10.615zm0-12.28H9.665v-4.995h42.458v4.995zm1.932-9.224l-.87.352a5.205 5.205 0 00-4.6-2.783H25.458l4.25-2.125a.832.832 0 00.401-1.054l-1.765-4.412a.833.833 0 00-1.146-.436l-7.059 3.532a.833.833 0 00-.4 1.054l1.377 3.441H16.74l-.985-2.629a3.645 3.645 0 012.024-4.662l27.915-11.572a3.658 3.658 0 014.815 2.066l5.586 14.524a3.676 3.676 0 01-2.041 4.704z"/><path d="M37.947 64.969a4.995 4.995 0 005.018 0 4.995 4.995 0 100-8.638 4.995 4.995 0 10-5.018 8.638zm6.41-7.446c.354-.13.728-.2 1.105-.203a3.33 3.33 0 010 6.66 3.296 3.296 0 01-1.105-.203 4.975 4.975 0 000-6.254zm-1.392.947a3.269 3.269 0 010 4.36 3.27 3.27 0 010-4.36zm-2.498-1.15c.378.004.752.072 1.106.203a4.975 4.975 0 000 6.254c-.354.13-.728.199-1.105.203a3.33 3.33 0 010-6.66zm2.65-21.114l.676 1.522 7.942-3.53-.676-1.522-7.942 3.53zm6.169-7.055l-11.471 5.295.697 1.511 11.472-5.295-.698-1.51z"/></g><defs><clipPath id="clip0_60447_788"><path fill="#fff" transform="translate(8 19)" d="M0 0h50v50H0z"/></clipPath></defs></svg>