<svg width="23" height="24" fill="none" xmlns="http://www.w3.org/2000/svg"><ellipse opacity=".18" cx="10.932" cy="11.536" rx="5" ry="10.929" transform="rotate(40.877 10.932 11.536)" fill="#4945FF" fill-opacity=".4"/><g clip-path="url(#clip0_60447_1178)"><path d="M17.374 20a5.573 5.573 0 01-1.911-.341A20.387 20.387 0 018.06 14.94a20.383 20.383 0 01-4.718-7.402 5.532 5.532 0 01-.282-2.72A5.662 5.662 0 015.975.667 5.57 5.57 0 018.642 0c.294 0 .55.206.61.494l.982 4.578a.625.625 0 01-.17.573L8.389 7.32a16.45 16.45 0 007.291 7.29l1.677-1.675a.625.625 0 01.572-.17l4.578.982a.625.625 0 01.494.61 5.57 5.57 0 01-.666 2.667 5.684 5.684 0 01-4.152 2.916c-.27.04-.54.059-.808.059zM8.142 1.277a4.329 4.329 0 00-3.095 1.845 4.306 4.306 0 00-.53 3.989 18.956 18.956 0 0011.372 11.373 4.306 4.306 0 003.99-.53 4.329 4.329 0 001.844-3.096L18 14.06l-1.75 1.75a.625.625 0 01-.708.124A17.696 17.696 0 017.066 7.46a.625.625 0 01.124-.708l1.75-1.75-.798-3.725z" fill="#4945FF"/></g><defs><clipPath id="clip0_60447_1178"><path fill="#fff" transform="translate(3)" d="M0 0h20v20H0z"/></clipPath></defs></svg>