<svg width="44" height="47" fill="none" xmlns="http://www.w3.org/2000/svg"><ellipse cx="21.865" cy="23.071" rx="10" ry="21.857" transform="rotate(40.877 21.865 23.071)" fill="#4945FF" fill-opacity=".1"/><path d="M8.768 27.74a.7.7 0 00-.342.917l1.572 3.376a.7.7 0 00.63.406.705.705 0 00.293-.063l11.884-5.55L21.73 38.08a.7.7 0 00.23.587 3.05 3.05 0 001.846.7c.186-.001.371-.024.552-.07.965-.252 1.713-1.112 2.223-2.58l4.677-13.848 9.262-4.32c2.726-1.273 4.131-3.852 3.188-5.865a3.54 3.54 0 00-2.734-1.909 6.48 6.48 0 00-3.816.588l-10.689 5.012-11.492-4.495c-1.447-.546-2.594-.532-3.397.049a2.85 2.85 0 00-1.042 2.258.7.7 0 00.3.552l7.739 5.32-4.432 2.097-7.431-1.888a.7.7 0 00-.776.336l-1.852 3.334a.697.697 0 00.363.986l5.502 2.272-1.182.545zm3.201-13.903c.042-.295.191-.564.42-.755.399-.287 1.126-.245 2.097.119l10.235 3.991-4.67 2.181-8.081-5.536zM5.68 23.931l1.216-2.16 7.15 1.776a.7.7 0 00.463-.042L37.75 12.649a5.11 5.11 0 012.985-.476 2.19 2.19 0 011.706 1.105c.586 1.258-.567 3.097-2.517 4.005l-8.053 3.775.49-1.447a.71.71 0 10-1.35-.447l-5.753 17.12c-.343.971-.77 1.552-1.245 1.677a1.18 1.18 0 01-.852-.16l1.398-14.68a.702.702 0 10-1.398-.133l-.217 2.243-11.996 5.593-.985-2.097 1.97-.923a.7.7 0 000-1.28l-6.256-2.593z" fill="#4945FF"/></svg>