<svg width="50" height="56" fill="none" xmlns="http://www.w3.org/2000/svg"><ellipse rx="10.761" ry="24.051" transform="matrix(.70266 .71152 -.59473 .80393 21.865 27.138)" fill="#4945FF" fill-opacity=".1"/><path d="M30.188 34.455V14.297a6.297 6.297 0 10-12.594 0v20.149c-5.443 3.472-7.04 10.7-3.568 16.143a11.69 11.69 0 009.834 5.402l.062.009c6.456-.012 11.68-5.256 11.668-11.712a11.69 11.69 0 00-5.402-9.833zM18.972 52.888a9.91 9.91 0 010-17.162.895.895 0 00.448-.779v-20.65a4.507 4.507 0 119.014 0v20.65a.896.896 0 00.447.779c4.74 2.736 6.363 8.796 3.627 13.535-2.736 4.74-8.796 6.364-13.536 3.627z" fill="#4945FF"/><path d="M24.817 37.874V24.295a.895.895 0 00-1.79 0v13.58a6.185 6.185 0 00.895 12.307 6.185 6.185 0 00.895-12.308zm-.895 10.509a4.395 4.395 0 01-4.395-4.395 4.404 4.404 0 014.395-4.395 4.395 4.395 0 110 8.79zm14.993-34.229H33.32a.895.895 0 000 1.79h5.595a.895.895 0 000-1.79zm-1.19 4.476H34.44a.895.895 0 000 1.79h3.285a.895.895 0 000-1.79zm1.19 4.475H33.32a.895.895 0 000 1.79h5.595a.895.895 0 000-1.79zm-1.19 4.475H34.44a.895.895 0 000 1.79h3.285a.895.895 0 000-1.79zm1.19 4.476H33.32a.895.895 0 000 1.79h5.595a.895.895 0 100-1.79z" fill="#4945FF"/></svg>