<svg width="20" height="20" fill="none" xmlns="http://www.w3.org/2000/svg"><g clip-path="url(#clip0_60447_1054)" fill="#676767"><path d="M7.586.392A.392.392 0 007.194 0H4.533a.392.392 0 00-.392.392v19.216c0 .216.175.392.392.392h2.66a.392.392 0 00.393-.392c0-1.34 1.09-2.429 2.428-2.429 1.34 0 2.43 1.09 2.43 2.429 0 .216.175.392.391.392h2.661a.392.392 0 00.392-.392V16.12a.392.392 0 00-.784 0v3.095h-1.9a3.218 3.218 0 00-3.19-2.82 3.218 3.218 0 00-3.189 2.82h-1.9V5.741h.785a.392.392 0 100-.784h-.785V.785h1.9a3.218 3.218 0 003.19 2.82 3.218 3.218 0 003.189-2.82h1.9v4.172h-.785a.392.392 0 100 .784h.785v7.157a.392.392 0 10.784 0V.392A.392.392 0 0015.496 0h-2.66a.392.392 0 00-.393.392c0 1.34-1.09 2.429-2.428 2.429A2.431 2.431 0 017.585.392z"/><path d="M11.842 5.35a.392.392 0 00-.393-.393H8.58a.392.392 0 100 .784h2.87a.392.392 0 00.393-.392zm-2.384 6.296a1.53 1.53 0 00-1.089-.451 1.542 1.542 0 000 3.08 1.535 1.535 0 001.54-1.54c0-.394-.15-.789-.45-1.089zM8.37 13.49a.75.75 0 01-.755-.755.753.753 0 01.755-.755.756.756 0 010 1.51zm2.389-3.187a1.541 1.541 0 002.628-1.088c0-.395-.15-.79-.45-1.09-.6-.6-1.578-.6-2.178 0-.6.601-.6 1.578 0 2.178zm.555-1.623a.756.756 0 011.068 1.069.756.756 0 01-1.068-1.069zm1.131 4.065L8.359 8.66a.393.393 0 00-.555.555L11.89 13.3a.396.396 0 00.53.024.396.396 0 00.025-.579zm2.655 1.771c0 .164.105.313.26.369a.396.396 0 00.434-.119.396.396 0 00.036-.45.395.395 0 00-.412-.185.396.396 0 00-.318.385z"/></g><defs><clipPath id="clip0_60447_1054"><path fill="#fff" transform="rotate(-90 10 10)" d="M0 0h20v20H0z"/></clipPath></defs></svg>