<svg width="44" height="47" fill="none" xmlns="http://www.w3.org/2000/svg"><ellipse cx="21.865" cy="23.071" rx="10" ry="21.857" transform="rotate(40.877 21.865 23.071)" fill="#4945FF" fill-opacity=".1"/><g clip-path="url(#clip0_60447_547)"><path d="M38.642 23.477L35.918 22.3l-2.313-4.501a3.642 3.642 0 00-3.277-1.992h-3.983v-1.125c0-2.036-1.625-3.697-3.661-3.697H3.644C1.608 10.984 0 12.654 0 14.68v17.236a2.245 2.245 0 002.215 2.277h.509c0 .09-.009.125-.009.178a4.627 4.627 0 009.252.036v-.044c0-.063 0-.09-.009-.179h15.387v.179a4.627 4.627 0 009.252.035v-.223h1.152c1.242 0 2.25-1.01 2.25-2.25V25.55c.019-.876-.517-1.707-1.357-2.073zM7.35 37.24a2.836 2.836 0 01-2.84-2.84 2.836 2.836 0 012.84-2.84 2.836 2.836 0 012.84 2.84 2.847 2.847 0 01-2.84 2.84zm17.209-4.813h-13.02a4.588 4.588 0 00-4.189-2.67 4.564 4.564 0 00-4.188 2.67H2.25c-.277 0-.465-.215-.465-.492v-4.599H24.56v5.09zm0-17.736v10.86H1.786V14.69c0-1.045.813-1.911 1.858-1.911h19.04a1.892 1.892 0 011.875 1.902v.009zm1.786 2.911h3.983a1.885 1.885 0 011.697 1.01l1.786 3.455h-7.466v-4.465zM31.98 37.24a2.836 2.836 0 01-2.84-2.84 2.836 2.836 0 012.84-2.84 2.836 2.836 0 012.84 2.84 2.841 2.841 0 01-2.84 2.84zm6.242-5.304c0 .276-.187.49-.464.49h-1.59a4.623 4.623 0 00-8.376 0h-1.447v-8.572h8.752l2.84 1.25a.525.525 0 01.285.482v6.35z" fill="#4945FF"/></g><defs><clipPath id="clip0_60447_547"><path fill="#fff" transform="translate(0 5)" d="M0 0h40v40H0z"/></clipPath></defs></svg>