<svg width="66" height="70" fill="none" xmlns="http://www.w3.org/2000/svg"><ellipse cx="32.798" cy="34.606" rx="15" ry="32.786" transform="rotate(40.877 32.798 34.606)" fill="#4945FF" fill-opacity=".1"/><path d="M53.169 58.656c.087-.245.144-.506.144-.781s-.057-.536-.144-.781h1.706V55.53h-1.563v-3.906a.78.78 0 00-.78-.781h-2.344v-3.907a.78.78 0 00-.782-.78h-.781V36a.78.78 0 00-.781-.781H18.156a.78.78 0 00-.781.781v22.656H14.25V29.98L33 18.174 51.75 29.98v19.3h1.563V30.963l.364.23A.782.782 0 0054.72 31l2.343-3.125a.78.78 0 00-.206-1.128L33.42 11.903a.78.78 0 00-.836 0L9.145 26.747a.781.781 0 00-.207 1.128L11.28 31a.782.782 0 001.042.193l.364-.23v27.693H8.781v1.563H57.22v-1.563h-4.05zm-41.07-29.17l-1.405-1.872L33 13.487l22.306 14.127-1.405 1.873-20.485-12.899a.784.784 0 00-.832 0L12.099 29.487zm39.651 28.39a.782.782 0 11-1.563 0 .782.782 0 011.563 0zm-9.375 0a.782.782 0 111.563 0 .782.782 0 01-1.563 0zm-1.563-5.469h1.563v1.563h1.563v-1.563H45.5v3.125h-4.688v-3.125zm4.544 4.688h3.413a2.3 2.3 0 00-.144.781c0 .275.056.536.144.781h-3.413c.088-.245.144-.506.144-.781s-.056-.536-.144-.781zm6.394-1.563h-4.688v-3.125h1.563v1.563h1.563v-1.563h1.562v3.125zm-7.813-4.687V47.72H45.5v1.562h1.563V47.72h1.562v3.125h-4.688zm-.78-4.688a.78.78 0 00-.782.782v3.906h-1.563v-5.469a.78.78 0 00-.78-.781h-3.126v1.562h2.344v10.157c0 .432.35.78.781.78h.925a2.317 2.317 0 00-.144.782c0 .275.057.536.144.781h-3.269V54.75a.78.78 0 00-.78-.781h-5.47v-3.907a.78.78 0 00-.78-.78h-5.47v-3.907a.78.78 0 00-.78-.781h-5.47V43.03h28.125v3.125h-3.906zm-24.22 7.813v-3.125H20.5v1.562h1.563v-1.562h1.562v3.125h-4.688zm3.125-6.25v-1.563h1.563v3.125h-4.688v-3.125H20.5v1.563h1.563zm6.25 4.687v-1.562h1.563v3.125h-4.688v-3.125h1.563v1.562h1.563zm-3.125 3.125h1.563v1.563h1.563V55.53h1.562v3.125h-4.688V55.53zm6.25 0H33v1.563h1.563V55.53h1.562v3.125h-4.688V55.53zM47.063 41.47H18.939v-1.563h28.125v1.563zm0-4.688v1.563H18.939V36.78h28.125zm-28.124 18.75H20.5v1.563h1.563V55.53h1.562v3.125h-4.688V55.53z" fill="#4945FF"/><path d="M23.625 27.406a.78.78 0 00-.781.782v4.687a.78.78 0 00.781.781h18.75a.78.78 0 00.781-.781v-4.688a.78.78 0 00-.781-.78h-18.75zm17.969 4.688H24.406v-3.125h17.188v3.125z" fill="#4945FF"/></svg>