<svg width="50" height="55" fill="none" xmlns="http://www.w3.org/2000/svg"><ellipse rx="10.761" ry="24.051" transform="matrix(.70266 .71152 -.59473 .80393 25.865 27.478)" fill="#4945FF" fill-opacity=".1"/><path d="M46.367 19.625h2.07v1.563h-2.343a.781.781 0 01-.488-.171l-.442-.354a32.854 32.854 0 00-7.342-4.439l-6.87-2.725-.025-.01a1.36 1.36 0 00-1.333 2.352l5.99 3.911a.78.78 0 01.338.5 10.025 10.025 0 001.652 3.542c1.638 2.195 3.953 3.159 6.879 2.866l.155 1.555c-.398.04-.78.06-1.15.059-3.704 0-5.93-1.907-7.173-3.596a11.688 11.688 0 01-1.73-3.49H21.386v-1.563H32.53l-3.803-2.484a2.922 2.922 0 012.812-5.09l6.871 2.725a34.402 34.402 0 017.728 4.666l.228.183zm-29.033-4.688l3.288 15.785 1.53-.319L18.75 14.07a8.603 8.603 0 00-8.593-8.508H1.562v1.563h8.594a7.042 7.042 0 016.988 6.25h-4.743a3.13 3.13 0 00-3.026-2.344H1.562v1.563h7.813a1.563 1.563 0 011.56 1.5l-3.889 19.44 1.533.307 3.78-18.904h4.975zm22.555 17.005a34.421 34.421 0 00-7.703-4.655l-.017-.007-3.432-1.405h1.732v-1.563h-7.585v1.563h.66a2.922 2.922 0 00.504 4.311l2.544 1.939H12.5a3.123 3.123 0 00-2.391 5.135 3.125 3.125 0 001.61 5.803h12.5V41.5h-12.5a1.562 1.562 0 110-3.125h12.5v-1.563H12.5a1.563 1.563 0 010-3.124h16.406a.781.781 0 00.474-1.403l-4.396-3.35a1.358 1.358 0 011.298-2.376l.017.007 5.27 2.157a32.866 32.866 0 017.345 4.44c.276.22.549.525.93.525h8.593v-1.563h-8.32l-.227-.183zm.387 15.89c-1.83.915-6.502 3.043-10.36 3.043H15.624a1.563 1.563 0 010-3.125h8.594v-1.563H13.28a1.565 1.565 0 01-1.562-1.562h-1.563a3.13 3.13 0 002.775 3.105 3.124 3.124 0 002.694 4.708h14.29c1.718 0 5.404-.41 10.894-3.126h7.629V47.75h-7.813a.78.78 0 00-.35.083zM14.159 28.556l.586-10.547-1.56-.086-.586 10.547 1.56.086zm1.566-6.426l.684 8.496 1.557-.125-.683-8.496-1.558.125zM7.031 36.812a2.344 2.344 0 11-4.687 0 2.344 2.344 0 014.687 0zm-1.562 0a.781.781 0 10-1.562 0 .781.781 0 001.562 0zm17.187-18.75a2.344 2.344 0 110-4.688 2.344 2.344 0 010 4.688zm0-1.562a.78.78 0 100-1.562.78.78 0 000 1.562zm7.813 28.125a2.344 2.344 0 110-4.689 2.344 2.344 0 010 4.689zm0-1.563a.78.78 0 100-1.561.78.78 0 000 1.562z" fill="#4945FF"/></svg>