<svg width="100" height="100" fill="none" xmlns="http://www.w3.org/2000/svg"><circle opacity=".2" cx="50" cy="50" r="50" fill="#fff"/><path d="M67.585 65.581l-9.67-9.668a13.388 13.388 0 003.001-8.455C60.916 40.038 54.88 34 47.458 34 40.038 34 34 40.038 34 47.458s6.038 13.458 13.458 13.458c3.202 0 6.141-1.127 8.455-3l9.668 9.669a1.413 1.413 0 002.004 0 1.415 1.415 0 000-2.004zm-20.127-7.498c-5.86 0-10.625-4.766-10.625-10.625 0-5.86 4.766-10.625 10.625-10.625 5.86 0 10.625 4.766 10.625 10.625 0 5.86-4.766 10.625-10.625 10.625z" fill="#fff"/></svg>