<svg width="24" height="24" viewBox="0 0 24 24" fill="none" xmlns="http://www.w3.org/2000/svg">
<g clip-path="url(#clip0_60447_14)">
<path d="M6.93767 17.7805C5.88913 17.7269 5.90887 16.2521 6.93762 16.2009C9.85175 16.211 17.538 16.2036 20.5448 16.2057C21.3672 16.2057 22.0708 15.6461 22.2557 14.8449L23.9631 7.4515C24.0609 7.02818 23.9622 6.59004 23.6924 6.2495C23.4227 5.90896 23.0188 5.7109 22.5844 5.7109C21.3748 5.7109 11.1072 5.66443 5.84819 5.64346L5.01454 2.55027C4.81442 1.81108 4.13986 1.29485 3.37407 1.29485H0.703499C0.31498 1.29485 0 1.60983 0 1.99835C0 2.38687 0.31498 2.70185 0.703499 2.70185H3.37407C3.50591 2.70185 3.62199 2.79073 3.65627 2.91722L6.85789 14.7958C6.29495 14.8163 5.77061 15.0453 5.37299 15.4487C4.95521 15.8727 4.73084 16.4339 4.74121 17.029C4.76194 18.2192 5.74726 19.1875 6.93767 19.1875H7.96346C7.81099 19.5075 7.7254 19.8653 7.7254 20.2428C7.7254 21.6005 8.82999 22.7051 10.1877 22.7051C11.5455 22.7051 12.6501 21.6005 12.6501 20.2428C12.6501 19.8653 12.5644 19.5075 12.412 19.1875H16.8541C16.7018 19.5074 16.6162 19.865 16.6162 20.2424C16.6162 21.6001 17.7209 22.7047 19.0786 22.7047C20.4363 22.7047 21.5409 21.6001 21.5409 20.2424C21.5409 19.8503 21.4484 19.4796 21.2847 19.1503C21.5631 19.0566 21.7638 18.794 21.7638 18.484C21.7638 18.0955 21.4488 17.7805 21.0603 17.7805H6.93767ZM11.243 20.2428C11.243 20.8247 10.7696 21.2981 10.1877 21.2981C9.60576 21.2981 9.13235 20.8247 9.13235 20.2428C9.13235 19.6612 9.60529 19.188 10.1868 19.1875H10.1886C10.7701 19.188 11.243 19.6612 11.243 20.2428ZM19.0786 21.2978C18.4967 21.2978 18.0233 20.8243 18.0233 20.2424C18.0233 19.6663 18.4875 19.1967 19.0615 19.1875H19.0958C19.6698 19.1967 20.134 19.6663 20.134 20.2424C20.134 20.8243 19.6605 21.2978 19.0786 21.2978ZM22.5895 7.12306C22.5937 7.12831 22.5931 7.1308 22.5922 7.13483L21.8728 10.2502H19.4367L19.8516 7.10679L22.5787 7.11776C22.5829 7.11785 22.5854 7.11785 22.5895 7.12306ZM15.3367 14.7987V11.6572H17.8319L17.4173 14.7987H15.3367ZM11.8482 14.7987L11.4302 11.6572H13.9297V14.7987H11.8482ZM8.6096 14.7987H8.6074C8.43593 14.7987 8.28487 14.683 8.24027 14.5182L7.46914 11.6572H10.0108L10.4288 14.7987H8.6096ZM11.243 10.2502L10.8199 7.07044L13.9296 7.08296V10.2502H11.243ZM15.3367 10.2502V7.08863L18.4331 7.10111L18.0175 10.2502H15.3367ZM9.39973 7.06467L9.82356 10.2502H7.08991L6.22789 7.05187L9.39973 7.06467ZM20.5448 14.7987H18.8364L19.251 11.6572H21.5478L20.8848 14.5282C20.848 14.6875 20.7082 14.7987 20.5448 14.7987Z" fill="#4945FF"/>
</g>
<defs>
<clipPath id="clip0_60447_14">
<rect width="24" height="24" fill="white"/>
</clipPath>
</defs>
</svg>
