<svg width="22" height="22" viewBox="0 0 22 22" fill="none" xmlns="http://www.w3.org/2000/svg">
<g clip-path="url(#clip0_60447_164)">
<path d="M6.35953 16.2989C5.39837 16.2498 5.41647 14.8978 6.35949 14.8509C9.03077 14.8602 16.0765 14.8534 18.8327 14.8553C19.5866 14.8553 20.2315 14.3423 20.4011 13.6078L21.9662 6.83061C22.0558 6.44256 21.9653 6.04094 21.7181 5.72877C21.4708 5.41661 21.1006 5.23506 20.7023 5.23506C19.5935 5.23506 10.1816 5.19245 5.36084 5.17324L4.59666 2.33781C4.41322 1.66022 3.79487 1.18701 3.0929 1.18701H0.644874C0.288731 1.18701 0 1.47574 0 1.83189C0 2.18803 0.288731 2.47676 0.644874 2.47676H3.0929C3.21375 2.47676 3.32015 2.55823 3.35158 2.67418L6.2864 13.5629C5.77037 13.5817 5.28973 13.7915 4.92525 14.1614C4.54228 14.55 4.3366 15.0644 4.34611 15.61C4.36511 16.701 5.26832 17.5886 6.35953 17.5886H7.29984C7.16008 17.8819 7.08162 18.2099 7.08162 18.5559C7.08162 19.8005 8.09416 20.8131 9.33876 20.8131C10.5834 20.8131 11.5959 19.8005 11.5959 18.5559C11.5959 18.2099 11.5174 17.8819 11.3776 17.5886H15.4496C15.31 17.8819 15.2315 18.2097 15.2315 18.5556C15.2315 19.8002 16.2441 20.8127 17.4887 20.8127C18.7333 20.8127 19.7459 19.8001 19.7459 18.5556C19.7459 18.1962 19.661 17.8564 19.511 17.5545C19.7662 17.4686 19.9502 17.2279 19.9502 16.9437C19.9502 16.5876 19.6614 16.2989 19.3053 16.2989H6.35953ZM10.3061 18.556C10.3061 19.0894 9.87216 19.5234 9.33872 19.5234C8.80528 19.5234 8.37132 19.0894 8.37132 18.556C8.37132 18.0228 8.80485 17.589 9.3379 17.5886H9.33954C9.87259 17.589 10.3061 18.0228 10.3061 18.556ZM17.4887 19.523C16.9553 19.523 16.5213 19.089 16.5213 18.5556C16.5213 18.0275 16.9469 17.5971 17.473 17.5886H17.5045C18.0307 17.5971 18.4562 18.0275 18.4562 18.5556C18.4562 19.089 18.0222 19.523 17.4887 19.523ZM20.7071 6.52953C20.7109 6.53435 20.7103 6.53663 20.7095 6.54033L20.0501 9.39604H17.817L18.1973 6.51462L20.6972 6.52468C20.701 6.52476 20.7033 6.52476 20.7071 6.52953ZM14.0586 13.5655V10.6858H16.3459L15.9658 13.5655H14.0586ZM10.8608 13.5655L10.4777 10.6858H12.7689V13.5655H10.8608ZM7.89214 13.5655H7.89012C7.73294 13.5655 7.59446 13.4595 7.55358 13.3084L6.84671 10.6858H9.17655L9.5597 13.5655H7.89214ZM10.3061 9.39608L9.91825 6.4813L12.7688 6.49278V9.39608H10.3061ZM14.0586 9.39608V6.49798L16.897 6.50941L16.5161 9.39608H14.0586ZM8.61642 6.47601L9.00493 9.39604H6.49908L5.7089 6.46427L8.61642 6.47601ZM18.8327 13.5655H17.2667L17.6468 10.6858H19.7522L19.1444 13.3176C19.1107 13.4636 18.9825 13.5655 18.8327 13.5655Z" fill="white"/>
</g>
<defs>
<clipPath id="clip0_60447_164">
<rect width="22" height="22" fill="white"/>
</clipPath>
</defs>
</svg>
