<svg width="16" height="16" viewBox="0 0 16 16" fill="none" xmlns="http://www.w3.org/2000/svg">
<g clip-path="url(#clip0_60447_1088)">
<path d="M14.644 1.67614C12.8904 -0.0396729 10.087 -0.0392997 8.33381 1.67699L0.9809 9.02994C-0.348654 10.3908 -0.323245 12.5719 1.03765 13.9014C2.37616 15.2091 4.51386 15.2091 5.85237 13.9014L12.5106 7.24322C13.3761 6.37765 13.3761 4.97424 12.5106 4.10867C11.645 3.2431 10.2416 3.2431 9.376 4.10867L3.00729 10.4773C2.78515 10.7073 2.79153 11.0739 3.02154 11.296C3.24591 11.5127 3.6016 11.5127 3.82598 11.296L10.1947 4.92733C10.617 4.52275 11.2873 4.53716 11.6919 4.95949C12.0842 5.36905 12.0842 6.015 11.6919 6.42457L5.03371 13.0827C4.13425 13.9694 2.68626 13.959 1.79959 13.0595C0.921872 12.1692 0.921872 10.739 1.79959 9.84859L9.1525 2.49565C10.4622 1.18543 12.5861 1.18506 13.8963 2.49476C15.2065 3.80447 15.2069 5.92836 13.8972 7.23857L6.54425 14.5915C6.30139 14.7995 6.27309 15.165 6.48108 15.4079C6.68907 15.6507 7.05457 15.679 7.29743 15.471C7.32009 15.4516 7.34119 15.4305 7.3606 15.4079L14.7135 8.05492C16.4558 6.27428 16.4247 3.41838 14.644 1.67614Z" fill="#676767"/>
</g>
<defs>
<clipPath id="clip0_60447_1088">
<rect width="16" height="16" fill="white"/>
</clipPath>
</defs>
</svg>
