<svg width="22" height="24" viewBox="0 0 22 24" fill="none" xmlns="http://www.w3.org/2000/svg">
<ellipse opacity="0.18" cx="10.9326" cy="11.5355" rx="5" ry="10.9286" transform="rotate(40.8765 10.9326 11.5355)" fill="#4945FF" fill-opacity="0.4"/>
<path d="M13.5631 15.7661L10.7746 13.6746V9.41441C10.7746 8.98605 10.4283 8.6398 9.99995 8.6398C9.57159 8.6398 9.22534 8.98605 9.22534 9.41441V14.062C9.22534 14.306 9.33999 14.5361 9.53519 14.6817L12.6336 17.0055C12.773 17.11 12.9357 17.1604 13.0975 17.1604C13.3338 17.1604 13.5662 17.0543 13.718 16.8498C13.9752 16.5081 13.9055 16.0225 13.5631 15.7661Z" fill="#4945FF"/>
<path d="M10 4C4.48566 4 0 8.48566 0 14C0 19.5143 4.48566 24 10 24C15.5143 24 20 19.5143 20 14C20 8.48566 15.5143 4 10 4ZM10 22.4508C5.34082 22.4508 1.54918 18.6592 1.54918 14C1.54918 9.34082 5.34082 5.54918 10 5.54918C14.66 5.54918 18.4508 9.34082 18.4508 14C18.4508 18.6592 14.6592 22.4508 10 22.4508Z" fill="#4945FF"/>
</svg>
