<svg width="16" height="16" viewBox="0 0 16 16" fill="none" xmlns="http://www.w3.org/2000/svg">
<path d="M10.8505 9.41285L8.61969 7.73972V4.33153C8.61969 3.98884 8.34269 3.71184 8 3.71184C7.65731 3.71184 7.38031 3.98884 7.38031 4.33153V8.0496C7.38031 8.24478 7.47203 8.42885 7.62819 8.54535L10.1069 10.4044C10.2184 10.488 10.3486 10.5283 10.4781 10.5283C10.6671 10.5283 10.853 10.4434 10.9744 10.2798C11.1802 10.0065 11.1244 9.61797 10.8505 9.41285Z" fill="#676767"/>
<path d="M8 0C3.58853 0 0 3.58853 0 8C0 12.4115 3.58853 16 8 16C12.4115 16 16 12.4115 16 8C16 3.58853 12.4115 0 8 0ZM8 14.7607C4.27266 14.7607 1.23934 11.7273 1.23934 8C1.23934 4.27266 4.27266 1.23934 8 1.23934C11.728 1.23934 14.7607 4.27266 14.7607 8C14.7607 11.7273 11.7273 14.7607 8 14.7607Z" fill="#676767"/>
</svg>
