<svg width="40" height="40" viewBox="0 0 40 40" fill="none" xmlns="http://www.w3.org/2000/svg">
<path d="M20 30.1562C19.5688 30.1562 19.2188 30.5063 19.2188 30.9375C19.2188 31.3687 19.5688 31.7188 20 31.7188C20.4312 31.7188 20.7812 31.3687 20.7812 30.9375C20.7812 30.5063 20.4312 30.1562 20 30.1562Z" fill="#4945FF"/>
<path d="M36.6474 4.79453C34.7249 4.02023 32.2254 3.59375 29.6094 3.59375C26.9934 3.59375 24.4938 4.02023 22.5713 4.79453C21.4352 5.25211 20.5678 5.81133 20 6.43883C19.4322 5.81133 18.5648 5.25219 17.4287 4.79461C15.5062 4.02023 13.0066 3.59375 10.3906 3.59375C7.77461 3.59375 5.27508 4.02023 3.35258 4.79453C1.19062 5.66531 0 6.90359 0 8.28125V27.0312C0 28.4089 1.19062 29.6472 3.35258 30.518C5.14062 31.2381 7.42797 31.6569 9.84375 31.712V31.7188C9.84375 34.3911 14.21 36.4062 20 36.4062C25.79 36.4062 30.1562 34.3911 30.1562 31.7188V31.712C32.572 31.6569 34.8594 31.2381 36.6474 30.518C38.8094 29.6472 40 28.4089 40 27.0312V8.28125C40 6.90359 38.8094 5.66531 36.6474 4.79453ZM38.4375 22.3438C38.4375 23.0107 37.5279 23.7913 36.0637 24.3811C34.4789 25.0194 32.3513 25.4055 30.1562 25.461V22.3438C30.1562 22.3415 30.1561 22.3392 30.1561 22.337C32.572 22.282 34.8593 21.8632 36.6475 21.143C37.3493 20.8603 37.948 20.5387 38.4376 20.1864L38.4375 22.3438ZM19.2188 12.9688C19.2188 13.6357 18.3091 14.4163 16.8449 15.0061C15.1288 15.6973 12.7762 16.0938 10.3906 16.0938C8.005 16.0938 5.6525 15.6973 3.93633 15.0061C2.47211 14.4163 1.5625 13.6357 1.5625 12.9688V10.8114C2.05211 11.1638 2.65078 11.4853 3.35258 11.768C5.27508 12.5423 7.77461 12.9688 10.3906 12.9688C13.0066 12.9688 15.5062 12.5423 17.4287 11.768C18.1305 11.4853 18.7291 11.1638 19.2188 10.8114V12.9688ZM3.35258 16.4555C5.27508 17.2298 7.77461 17.6562 10.3906 17.6562C13.0066 17.6562 15.5062 17.2298 17.4287 16.4555C18.1305 16.1728 18.7291 15.8513 19.2188 15.4989V17.6701C17.1977 17.7385 15.2594 18.0702 13.6916 18.6223C12.1192 19.1762 10.9877 19.9147 10.3724 20.781C7.99305 20.779 5.64812 20.383 3.93633 19.6936C2.47211 19.1038 1.5625 18.3232 1.5625 17.6562V15.4989C2.05211 15.8513 2.65078 16.1728 3.35258 16.4555ZM1.5625 20.1864C2.05211 20.5387 2.65078 20.8603 3.35258 21.143C5.1407 21.8631 7.42812 22.2819 9.84398 22.337C9.84398 22.3393 9.84383 22.3416 9.84383 22.3438V25.461C7.64875 25.4055 5.52117 25.0194 3.93641 24.3811C2.47211 23.7913 1.5625 23.0107 1.5625 22.3438V20.1864ZM11.4889 21.9599C12.0679 20.6125 15.4097 19.2188 20 19.2188C24.5903 19.2188 27.9321 20.6125 28.5105 21.9584C28.5666 22.0897 28.5938 22.2157 28.5938 22.3438C28.5938 23.0306 27.747 23.7936 26.3285 24.3846C24.6507 25.0837 22.4032 25.4688 20 25.4688C17.5968 25.4688 15.3493 25.0837 13.6715 24.3846C12.253 23.7936 11.4062 23.0306 11.4062 22.3438C11.4062 22.2157 11.4335 22.0897 11.4889 21.9599ZM38.4375 17.6562C38.4375 18.3232 37.5279 19.1038 36.0637 19.6936C34.352 20.383 32.0071 20.779 29.6278 20.781C29.013 19.9152 27.8813 19.1763 26.3084 18.6223C24.7406 18.0702 22.8023 17.7385 20.7812 17.6701V15.4989C21.2709 15.8513 21.8695 16.1728 22.5713 16.4555C24.4938 17.2298 26.9934 17.6562 29.6094 17.6562C32.2254 17.6562 34.7249 17.2298 36.6474 16.4555C37.3492 16.1728 37.9479 15.8513 38.4375 15.4989V17.6562ZM38.4375 12.9688C38.4375 13.6357 37.5279 14.4163 36.0637 15.0061C34.3475 15.6973 31.995 16.0938 29.6094 16.0938C27.2238 16.0938 24.8713 15.6973 23.1551 15.0061C21.6909 14.4163 20.7812 13.6357 20.7812 12.9688V10.8114C21.2709 11.1638 21.8695 11.4853 22.5713 11.768C24.4938 12.5423 26.9934 12.9688 29.6094 12.9688C32.2254 12.9688 34.7249 12.5423 36.6474 11.768C37.3492 11.4853 37.9479 11.1638 38.4375 10.8114V12.9688ZM23.1551 6.24391C24.8713 5.55266 27.2238 5.15625 29.6094 5.15625C31.995 5.15625 34.3475 5.55266 36.0637 6.24391C37.5279 6.83367 38.4375 7.6143 38.4375 8.28125C38.4375 8.9482 37.5279 9.72883 36.0637 10.3186C34.3475 11.0098 31.995 11.4062 29.6094 11.4062C27.2238 11.4062 24.8713 11.0098 23.1551 10.3186C21.6909 9.72883 20.7812 8.9482 20.7812 8.28125C20.7812 7.6143 21.6909 6.83367 23.1551 6.24391ZM3.93633 6.24391C5.6525 5.55266 8.005 5.15625 10.3906 5.15625C12.7762 5.15625 15.1288 5.55266 16.8449 6.24391C18.3091 6.83367 19.2188 7.6143 19.2188 8.28125C19.2188 8.9482 18.3091 9.72883 16.8449 10.3186C15.1288 11.0098 12.7762 11.4062 10.3906 11.4062C8.005 11.4062 5.6525 11.0098 3.93633 10.3186C2.47211 9.72883 1.5625 8.9482 1.5625 8.28125C1.5625 7.6143 2.47211 6.83367 3.93633 6.24391ZM3.93633 29.0686C2.47211 28.4788 1.5625 27.6982 1.5625 27.0312V24.8739C2.05211 25.2262 2.65078 25.5478 3.35258 25.8305C5.14062 26.5506 7.42797 26.9694 9.84375 27.0245V30.1486C7.64867 30.093 5.52109 29.707 3.93633 29.0686ZM26.3285 33.7596C24.6507 34.4587 22.4032 34.8438 20 34.8438C17.5968 34.8438 15.3493 34.4587 13.6715 33.7596C12.253 33.1686 11.4062 32.4056 11.4062 31.7188V29.607C11.5832 29.735 11.7788 29.8623 11.9956 29.9877C13.2088 30.6898 14.8595 31.2091 16.7694 31.4894C16.8079 31.495 16.846 31.4977 16.8838 31.4977C17.2651 31.4977 17.5988 31.2183 17.6558 30.8298C17.7184 30.403 17.4231 30.0061 16.9963 29.9434C13.3655 29.4104 11.4062 28.0452 11.4062 27.0312V24.9125C13.1745 26.2064 16.2959 27.0312 20 27.0312C23.7041 27.0312 26.8255 26.2064 28.5938 24.9125V27.0312C28.5938 28.0452 26.6345 29.4104 23.0037 29.9434C22.5768 30.0061 22.2815 30.403 22.3442 30.8298C22.4013 31.2184 22.7349 31.4977 23.1162 31.4977C23.1539 31.4977 23.1922 31.495 23.2306 31.4894C25.1404 31.2091 26.7911 30.6898 28.0044 29.9877C28.2212 29.8623 28.4168 29.735 28.5938 29.607V31.7188C28.5938 32.4056 27.747 33.1686 26.3285 33.7596ZM36.0637 29.0686C34.4789 29.7069 32.3513 30.093 30.1562 30.1485V27.0245C32.572 26.9693 34.8594 26.5505 36.6474 25.8304C37.3492 25.5477 37.9479 25.2262 38.4375 24.8738V27.0312C38.4375 27.6982 37.5279 28.4788 36.0637 29.0686Z" fill="#4945FF"/>
</svg>
