<svg width="50" height="55" viewBox="0 0 50 55" fill="none" xmlns="http://www.w3.org/2000/svg">
<ellipse rx="10.7608" ry="24.0512" transform="matrix(0.702664 0.711522 -0.59473 0.803926 25.8651 27.4778)" fill="#4945FF" fill-opacity="0.1"/>
<path d="M42.5945 47.1081C41.8701 47.1074 41.1757 46.8191 40.6639 46.3066C40.152 45.7941 39.8646 45.0993 39.8647 44.375V35.0324C39.8647 34.8532 39.9359 34.6813 40.0626 34.5546C40.1894 34.4279 40.3612 34.3567 40.5404 34.3567C40.7196 34.3567 40.8915 34.4279 41.0182 34.5546C41.1449 34.6813 41.2161 34.8532 41.2161 35.0324V44.375C41.212 44.5585 41.2447 44.741 41.3121 44.9117C41.3795 45.0825 41.4804 45.2381 41.6088 45.3693C41.7371 45.5005 41.8904 45.6048 42.0596 45.676C42.2288 45.7472 42.4106 45.7839 42.5941 45.7839C42.7777 45.7839 42.9595 45.7472 43.1287 45.676C43.2979 45.6048 43.4512 45.5005 43.5795 45.3693C43.7079 45.2381 43.8088 45.0825 43.8762 44.9117C43.9436 44.741 43.9763 44.5585 43.9722 44.375V28.1142C43.9722 27.935 44.0434 27.7631 44.1701 27.6364C44.2968 27.5097 44.4687 27.4385 44.6479 27.4385C44.8271 27.4385 44.9989 27.5097 45.1256 27.6364C45.2524 27.7631 45.3235 27.935 45.3235 28.1142V44.375C45.3237 45.0992 45.0364 45.7938 44.5247 46.3063C44.0129 46.8188 43.3187 47.1072 42.5945 47.1081Z" fill="#4945FF"/>
<path d="M46.311 35.5805C45.6911 35.58 45.0967 35.3335 44.6582 34.8952C44.2198 34.457 43.9732 33.8626 43.9725 33.2427V28.1143C43.9725 27.9351 44.0437 27.7633 44.1704 27.6366C44.2971 27.5098 44.469 27.4387 44.6482 27.4387C44.8274 27.4387 44.9992 27.5098 45.1259 27.6366C45.2526 27.7633 45.3238 27.9351 45.3238 28.1143V33.2427C45.3306 33.5 45.4375 33.7444 45.6218 33.924C45.8061 34.1035 46.0533 34.204 46.3106 34.204C46.568 34.204 46.8152 34.1035 46.9995 33.924C47.1838 33.7444 47.2907 33.5 47.2975 33.2427V24.9691C47.2966 24.2563 47.013 23.573 46.509 23.069C46.005 22.565 45.3217 22.2814 44.609 22.2805H36.4725C35.7597 22.2814 35.0764 22.565 34.5724 23.069C34.0684 23.573 33.7849 24.2563 33.784 24.9691V33.2427C33.7907 33.5 33.8976 33.7444 34.082 33.924C34.2663 34.1035 34.5135 34.204 34.7708 34.204C35.0281 34.204 35.2753 34.1035 35.4596 33.924C35.644 33.7444 35.7509 33.5 35.7576 33.2427V28.1143C35.7576 27.9351 35.8288 27.7633 35.9555 27.6366C36.0822 27.5098 36.2541 27.4387 36.4333 27.4387C36.6125 27.4387 36.7843 27.5098 36.9111 27.6366C37.0378 27.7633 37.109 27.9351 37.109 28.1143V33.2427C37.0985 33.8559 36.8476 34.4405 36.4103 34.8705C35.9729 35.3005 35.3841 35.5415 34.7708 35.5415C34.1575 35.5415 33.5687 35.3005 33.1313 34.8705C32.694 34.4405 32.443 33.8559 32.4326 33.2427V24.9691C32.4339 23.898 32.8599 22.8712 33.6172 22.1138C34.3746 21.3565 35.4014 20.9305 36.4725 20.9292H44.609C45.68 20.9305 46.7068 21.3565 47.4642 22.1138C48.2215 22.8712 48.6476 23.898 48.6488 24.9691V33.2427C48.6481 33.8625 48.4016 34.4567 47.9633 34.895C47.525 35.3333 46.9308 35.5798 46.311 35.5805Z" fill="#4945FF"/>
<path d="M38.4864 47.1081C37.7627 47.1072 37.069 46.8193 36.5574 46.3075C36.0458 45.7958 35.758 45.102 35.7573 44.3783V28.1142C35.7573 27.935 35.8285 27.7631 35.9552 27.6364C36.0819 27.5097 36.2538 27.4385 36.433 27.4385C36.6122 27.4385 36.7841 27.5097 36.9108 27.6364C37.0375 27.7631 37.1087 27.935 37.1087 28.1142V44.375C37.1046 44.5585 37.1372 44.741 37.2047 44.9117C37.2721 45.0825 37.373 45.2381 37.5013 45.3693C37.6297 45.5005 37.783 45.6048 37.9522 45.676C38.1214 45.7472 38.3031 45.7839 38.4867 45.7839C38.6703 45.7839 38.852 45.7472 39.0212 45.676C39.1904 45.6048 39.3437 45.5005 39.4721 45.3693C39.6005 45.2381 39.7013 45.0825 39.7687 44.9117C39.8362 44.741 39.8688 44.5585 39.8647 44.375V35.0324C39.8647 34.8532 39.9359 34.6813 40.0626 34.5546C40.1894 34.4279 40.3612 34.3567 40.5404 34.3567C40.7196 34.3567 40.8915 34.4279 41.0182 34.5546C41.1449 34.6813 41.2161 34.8532 41.2161 35.0324V44.375C41.2163 45.0993 40.9288 45.7941 40.417 46.3066C39.9051 46.8191 39.2107 47.1074 38.4864 47.1081Z" fill="#4945FF"/>
<path d="M40.5405 19.4056C39.6985 19.4056 38.8755 19.1559 38.1755 18.6882C37.4755 18.2205 36.9299 17.5557 36.6077 16.7778C36.2855 16 36.2012 15.1441 36.3655 14.3184C36.5297 13.4927 36.9352 12.7342 37.5305 12.1389C38.1258 11.5435 38.8843 11.1381 39.71 10.9739C40.5357 10.8096 41.3916 10.8939 42.1694 11.2161C42.9473 11.5383 43.6121 12.0839 44.0798 12.7839C44.5476 13.4839 44.7972 14.3069 44.7972 15.1488C44.7961 16.2775 44.3473 17.3596 43.5493 18.1576C42.7512 18.9557 41.6691 19.4045 40.5405 19.4056ZM40.5405 12.2434C39.9658 12.2434 39.4041 12.4138 38.9263 12.7331C38.4485 13.0523 38.0761 13.5061 37.8562 14.037C37.6363 14.5679 37.5788 15.1521 37.6909 15.7157C37.803 16.2793 38.0797 16.7969 38.486 17.2033C38.8924 17.6096 39.41 17.8863 39.9736 17.9984C40.5372 18.1105 41.1214 18.053 41.6523 17.8331C42.1832 17.6132 42.637 17.2408 42.9562 16.763C43.2755 16.2852 43.4459 15.7235 43.4459 15.1488C43.445 14.3789 43.1385 13.6407 42.5937 13.0966C42.0489 12.5525 41.3104 12.2468 40.5405 12.2468V12.2434Z" fill="#4945FF"/>
<path d="M7.40532 47.1081C6.68169 47.1072 5.98796 46.8193 5.47634 46.3075C4.96472 45.7958 4.67698 45.102 4.67627 44.3783V28.1142C4.67627 27.935 4.74746 27.7631 4.87417 27.6364C5.00088 27.5097 5.17274 27.4385 5.35195 27.4385C5.53115 27.4385 5.70301 27.5097 5.82972 27.6364C5.95643 27.7631 6.02762 27.935 6.02762 28.1142V44.375C6.02356 44.5585 6.0562 44.741 6.12362 44.9117C6.19105 45.0825 6.29191 45.2381 6.42027 45.3693C6.54864 45.5005 6.70192 45.6048 6.87114 45.676C7.04035 45.7472 7.22208 45.7839 7.40566 45.7839C7.58924 45.7839 7.77097 45.7472 7.94018 45.676C8.1094 45.6048 8.26269 45.5005 8.39105 45.3693C8.51942 45.2381 8.62027 45.0825 8.6877 44.9117C8.75513 44.741 8.78777 44.5585 8.7837 44.375V35.0324C8.7837 34.8532 8.85489 34.6813 8.9816 34.5546C9.10832 34.4279 9.28018 34.3567 9.45938 34.3567C9.63858 34.3567 9.81044 34.4279 9.93715 34.5546C10.0639 34.6813 10.1351 34.8532 10.1351 35.0324V44.375C10.1352 45.0993 9.8478 45.7941 9.33594 46.3066C8.82407 46.8191 8.12966 47.1074 7.40532 47.1081Z" fill="#4945FF"/>
<path d="M15.2295 35.5805C14.6095 35.58 14.0151 35.3335 13.5767 34.8952C13.1383 34.457 12.8917 33.8626 12.8909 33.2427V28.1143C12.8909 27.9351 12.9621 27.7633 13.0888 27.6366C13.2156 27.5098 13.3874 27.4387 13.5666 27.4387C13.7458 27.4387 13.9177 27.5098 14.0444 27.6366C14.1711 27.7633 14.2423 27.9351 14.2423 28.1143V33.2427C14.249 33.5 14.3559 33.7444 14.5403 33.924C14.7246 34.1035 14.9718 34.204 15.2291 34.204C15.4865 34.204 15.7336 34.1035 15.918 33.924C16.1023 33.7444 16.2092 33.5 16.2159 33.2427V24.9691C16.215 24.2563 15.9315 23.573 15.4275 23.069C14.9235 22.565 14.2402 22.2814 13.5274 22.2805H5.39094C4.67818 22.2814 3.99486 22.565 3.49086 23.069C2.98686 23.573 2.70332 24.2563 2.70243 24.9691V33.2427C2.70916 33.5 2.81608 33.7444 3.00041 33.924C3.18474 34.1035 3.43191 34.204 3.68925 34.204C3.94659 34.204 4.19376 34.1035 4.37809 33.924C4.56242 33.7444 4.66934 33.5 4.67607 33.2427V28.1143C4.67607 27.9351 4.74726 27.7633 4.87398 27.6366C5.00069 27.5098 5.17255 27.4387 5.35175 27.4387C5.53095 27.4387 5.70281 27.5098 5.82952 27.6366C5.95624 27.7633 6.02743 27.9351 6.02743 28.1143V33.2427C6.017 33.8559 5.76607 34.4405 5.32872 34.8705C4.89136 35.3005 4.30258 35.5415 3.68925 35.5415C3.07592 35.5415 2.48714 35.3005 2.04978 34.8705C1.61243 34.4405 1.3615 33.8559 1.35107 33.2427V24.9691C1.35233 23.898 1.77836 22.8712 2.53571 22.1138C3.29306 21.3565 4.31988 20.9305 5.39094 20.9292H13.5274C14.5985 20.9305 15.6253 21.3565 16.3827 22.1138C17.14 22.8712 17.566 23.898 17.5673 24.9691V33.2427C17.5666 33.8625 17.32 34.4567 16.8818 34.895C16.4435 35.3333 15.8493 35.5798 15.2295 35.5805Z" fill="#4945FF"/>
<path d="M11.5134 47.1081C10.7891 47.1074 10.0947 46.8191 9.58281 46.3066C9.07094 45.7941 8.78351 45.0993 8.78369 44.375V35.0324C8.78369 34.8532 8.85488 34.6813 8.98159 34.5546C9.10831 34.4279 9.28017 34.3567 9.45937 34.3567C9.63857 34.3567 9.81043 34.4279 9.93714 34.5546C10.0639 34.6813 10.135 34.8532 10.135 35.0324V44.375C10.131 44.5585 10.1636 44.741 10.231 44.9117C10.2985 45.0825 10.3993 45.2381 10.5277 45.3693C10.6561 45.5005 10.8093 45.6048 10.9786 45.676C11.1478 45.7472 11.3295 45.7839 11.5131 45.7839C11.6967 45.7839 11.8784 45.7472 12.0476 45.676C12.2168 45.6048 12.3701 45.5005 12.4985 45.3693C12.6268 45.2381 12.7277 45.0825 12.7951 44.9117C12.8625 44.741 12.8952 44.5585 12.8911 44.375V28.1142C12.8911 27.935 12.9623 27.7631 13.089 27.6364C13.2157 27.5097 13.3876 27.4385 13.5668 27.4385C13.746 27.4385 13.9179 27.5097 14.0446 27.6364C14.1713 27.7631 14.2425 27.935 14.2425 28.1142V44.375C14.2427 45.0992 13.9553 45.7938 13.4436 46.3063C12.9319 46.8188 12.2376 47.1072 11.5134 47.1081Z" fill="#4945FF"/>
<path d="M9.45939 19.4056C8.61749 19.4056 7.79449 19.1559 7.09447 18.6882C6.39445 18.2205 5.84885 17.5557 5.52666 16.7778C5.20448 16 5.12018 15.1441 5.28443 14.3184C5.44868 13.4927 5.8541 12.7342 6.44941 12.1389C7.04473 11.5435 7.80321 11.1381 8.62894 10.9739C9.45467 10.8096 10.3106 10.8939 11.0884 11.2161C11.8662 11.5383 12.531 12.0839 12.9988 12.7839C13.4665 13.4839 13.7161 14.3069 13.7161 15.1488C13.7151 16.2775 13.2662 17.3596 12.4682 18.1576C11.6701 18.9557 10.588 19.4045 9.45939 19.4056ZM9.45939 12.2434C8.88476 12.2434 8.32303 12.4138 7.84524 12.7331C7.36745 13.0523 6.99505 13.5061 6.77515 14.037C6.55525 14.5679 6.49771 15.1521 6.60982 15.7157C6.72192 16.2793 6.99863 16.7969 7.40496 17.2033C7.81129 17.6096 8.32898 17.8863 8.89258 17.9984C9.45617 18.1105 10.0403 18.053 10.5712 17.8331C11.1021 17.6132 11.5559 17.2408 11.8751 16.763C12.1944 16.2852 12.3648 15.7235 12.3648 15.1488C12.3639 14.3789 12.0574 13.6407 11.5126 13.0966C10.9679 12.5525 10.2294 12.2468 9.45939 12.2468V12.2434Z" fill="#4945FF"/>
<path d="M32.7699 14.135H17.2294C17.0502 14.135 16.8783 14.0639 16.7516 13.9371C16.6249 13.8104 16.5537 13.6386 16.5537 13.4594C16.5537 13.2802 16.6249 13.1083 16.7516 12.9816C16.8783 12.8549 17.0502 12.7837 17.2294 12.7837H32.7699C32.9491 12.7837 33.121 12.8549 33.2477 12.9816C33.3744 13.1083 33.4456 13.2802 33.4456 13.4594C33.4456 13.6386 33.3744 13.8104 33.2477 13.9371C33.121 14.0639 32.9491 14.135 32.7699 14.135Z" fill="#4945FF"/>
<path d="M31.1862 15.9934C31.0573 15.9929 30.9312 15.9555 30.8228 15.8857C30.7144 15.8158 30.6283 15.7164 30.5746 15.5992C30.5209 15.482 30.5018 15.3518 30.5197 15.2241C30.5376 15.0964 30.5916 14.9765 30.6754 14.8785L31.8821 13.4596L30.6754 12.0407C30.5589 11.9043 30.5014 11.7273 30.5154 11.5485C30.5295 11.3697 30.614 11.2038 30.7504 11.0873C30.8868 10.9708 31.0638 10.9133 31.2426 10.9274C31.4214 10.9414 31.5873 11.026 31.7038 11.1623L33.2875 13.0204C33.3922 13.1428 33.4497 13.2986 33.4497 13.4596C33.4497 13.6207 33.3922 13.7764 33.2875 13.8988L31.7004 15.7569C31.6371 15.8314 31.5582 15.8911 31.4694 15.932C31.3806 15.9728 31.284 15.9938 31.1862 15.9934Z" fill="#4945FF"/>
<path d="M18.8134 15.9933C18.7155 15.9935 18.6188 15.9723 18.53 15.9312C18.4412 15.8902 18.3624 15.8302 18.2992 15.7555L16.7154 13.8974C16.6107 13.775 16.5532 13.6192 16.5532 13.4582C16.5532 13.2971 16.6107 13.1414 16.7154 13.019L18.2992 11.1609C18.3569 11.0933 18.4273 11.0378 18.5064 10.9975C18.5855 10.9572 18.6718 10.9329 18.7604 10.9259C18.8489 10.9189 18.9379 10.9295 19.0224 10.9569C19.1068 10.9844 19.1851 11.0282 19.2526 11.0859C19.3201 11.1435 19.3756 11.2139 19.4159 11.2931C19.4562 11.3722 19.4806 11.4585 19.4875 11.547C19.4945 11.6355 19.484 11.7246 19.4565 11.809C19.4291 11.8935 19.3853 11.9717 19.3276 12.0392L18.1175 13.4595L19.3276 14.8784C19.4112 14.9767 19.4649 15.0968 19.4824 15.2245C19.4999 15.3523 19.4805 15.4824 19.4264 15.5995C19.3723 15.7166 19.2859 15.8158 19.1773 15.8853C19.0686 15.9549 18.9424 15.9919 18.8134 15.9919V15.9933Z" fill="#4945FF"/>
</svg>
