<svg width="40" height="40" viewBox="0 0 40 40" fill="none" xmlns="http://www.w3.org/2000/svg">
<ellipse rx="8.94534" ry="19.4021" transform="matrix(0.773163 0.634207 -0.674348 0.738414 19.9999 20)" fill="#4945FF" fill-opacity="0.1"/>
<g clip-path="url(#clip0_60447_1804)">
<path d="M23.5377 12.881C22.7984 11.8506 22.1461 10.9027 21.5372 10.0372C21.4503 9.91351 21.3198 9.78986 21.1893 9.70743C20.6675 9.37771 19.9717 9.54257 19.6238 10.0372C19.0584 10.9027 18.4061 11.8094 17.6233 12.881C14.1878 17.662 9.05615 24.8747 9.05615 28.9962C9.05615 32.0049 10.3608 34.7251 12.4482 36.7035C14.5357 38.6406 17.4059 39.877 20.5805 39.877C23.7551 39.877 26.6254 38.6406 28.7128 36.6622C30.8002 34.6839 32.1049 31.9637 32.1049 28.955C32.1049 24.8334 26.9733 17.662 23.5377 12.881ZM27.1472 35.1785C25.4512 36.7859 23.1463 37.7338 20.5805 37.7338C18.0147 37.7338 15.7098 36.7447 14.0138 35.1785C12.3178 33.5711 11.3175 31.3867 11.3175 28.955C11.3175 25.4929 16.2317 18.6099 19.4933 14.035C19.8847 13.4992 20.2326 12.9634 20.5805 12.5101C20.9284 12.9634 21.2763 13.4992 21.6677 14.035C24.9293 18.6512 29.8435 25.4929 29.8435 28.955C29.8435 31.3867 28.7998 33.5711 27.1472 35.1785Z" fill="#4945FF"/>
<path d="M27.321 28.2131C26.7122 28.1718 26.1903 28.6252 26.1468 29.2022C26.1034 30.109 25.7989 30.9745 25.3206 31.7164C24.8422 32.4582 24.1464 33.1177 23.3201 33.5298C22.7983 33.8183 22.5808 34.4778 22.8852 34.9724C23.2331 35.5494 23.9289 35.7142 24.4508 35.4257C25.625 34.8075 26.5817 33.9008 27.234 32.8704C27.9299 31.84 28.3213 30.6035 28.3647 29.3259C28.4082 28.7489 27.9299 28.2543 27.321 28.2131Z" fill="#4945FF"/>
</g>
<defs>
<clipPath id="clip0_60447_1804">
<rect width="32.0143" height="30.3412" fill="white" transform="translate(4.57324 9.53589)"/>
</clipPath>
</defs>
</svg>
