<svg width="22" height="24" viewBox="0 0 22 24" fill="none" xmlns="http://www.w3.org/2000/svg">
<ellipse opacity="0.18" cx="10.9335" cy="11.5355" rx="5" ry="10.9286" transform="rotate(40.8765 10.9335 11.5355)" fill="#4945FF" fill-opacity="0.4"/>
<g clip-path="url(#clip0_60447_1235)">
<path d="M20.4182 4.14453H5.58228C4.71103 4.14453 4.00024 4.85455 4.00024 5.72656V16.2734C4.00024 17.1425 4.70787 17.8555 5.58228 17.8555H20.4182C21.2873 17.8555 22.0002 17.1478 22.0002 16.2734V5.72656C22.0002 4.8575 21.2926 4.14453 20.4182 4.14453ZM20.1998 5.19922L13.0338 12.3652L5.80583 5.19922H20.1998ZM5.05493 16.055V5.93993L10.1343 10.9757L5.05493 16.055ZM5.8007 16.8008L10.8832 11.7182L12.6642 13.4839C12.8703 13.6883 13.203 13.6876 13.4083 13.4822L15.1448 11.7458L20.1998 16.8008H5.8007ZM20.9456 16.055L15.8905 11L20.9456 5.94495V16.055Z" fill="#4945FF"/>
</g>
<defs>
<clipPath id="clip0_60447_1235">
<rect width="18" height="18" fill="white" transform="translate(4.00024 2)"/>
</clipPath>
</defs>
</svg>
