<svg width="24" height="24" viewBox="0 0 24 24" fill="none" xmlns="http://www.w3.org/2000/svg">
<path d="M22.2991 3.37508C21.165 2.26774 19.5983 1.7143 17.5981 1.7143C17.0445 1.7143 16.4796 1.81028 15.9038 2.00214C15.3278 2.19414 14.792 2.45317 14.2969 2.77905C13.8012 3.10483 13.3751 3.41078 13.0177 3.69641C12.6608 3.98213 12.3214 4.28578 12 4.6071C11.6785 4.28578 11.3392 3.98213 10.9822 3.69641C10.6249 3.41078 10.1987 3.10502 9.70304 2.77905C9.20749 2.45303 8.67174 2.19418 8.09588 2.00214C7.52007 1.81033 6.95524 1.7143 6.40171 1.7143C4.40164 1.7143 2.83477 2.26788 1.70088 3.37508C0.566992 4.48218 0 6.01781 0 7.98209C0 8.58032 0.105077 9.19662 0.314808 9.83022C0.524539 10.4642 0.763542 11.0044 1.03135 11.4507C1.29911 11.897 1.60275 12.3323 1.94204 12.7564C2.28134 13.1805 2.5293 13.4728 2.68537 13.6335C2.84158 13.7942 2.96438 13.9104 3.05365 13.9819L11.4107 22.0445C11.5714 22.2052 11.7678 22.2858 12 22.2858C12.2321 22.2858 12.4286 22.2052 12.5893 22.0445L20.933 14.0084C22.9777 11.9641 24 9.95519 24 7.9819C24 6.01748 23.4331 4.482 22.2991 3.37508ZM19.7678 12.7497L12 20.2362L4.21893 12.7362C2.54924 11.0669 1.71453 9.48192 1.71453 7.9819C1.71453 7.25879 1.81051 6.62031 2.00237 6.06687C2.19437 5.51335 2.43989 5.07348 2.73899 4.7476C3.03813 4.42163 3.40191 4.15621 3.83047 3.9507C4.25927 3.74538 4.67887 3.60695 5.08951 3.53556C5.50016 3.46425 5.93759 3.42856 6.40194 3.42856C6.86616 3.42856 7.36626 3.54226 7.90196 3.77001C8.43757 3.99766 8.93087 4.28338 9.38171 4.62709C9.83265 4.97103 10.2188 5.2924 10.5404 5.5914C10.8617 5.89068 11.1295 6.16506 11.3438 6.41508C11.5044 6.61159 11.7234 6.70981 12 6.70981C12.2768 6.70981 12.4955 6.61159 12.6563 6.41508C12.8706 6.16506 13.1385 5.89054 13.4599 5.5914C13.7813 5.2924 14.1675 4.97117 14.6183 4.62709C15.0692 4.28338 15.5625 3.99766 16.0984 3.77001C16.6339 3.54231 17.1342 3.42856 17.5984 3.42856C18.0627 3.42856 18.5 3.46425 18.9108 3.53556C19.3216 3.6069 19.7412 3.74538 20.1699 3.9507C20.5985 4.15617 20.9622 4.42177 21.2613 4.7476C21.5604 5.07348 21.806 5.51335 21.998 6.06687C22.1897 6.62031 22.2857 7.25879 22.2857 7.9819C22.2856 9.48192 21.4464 11.0713 19.7678 12.7497Z" fill="#F34141"/>
</svg>
