<svg width="30" height="30" viewBox="0 0 30 30" fill="none" xmlns="http://www.w3.org/2000/svg">
<path d="M26.9337 4.85777L15.4494 0.0895825C15.1617 -0.0298315 14.8383 -0.0298901 14.5506 0.0895825L3.06627 4.85777C2.62887 5.03941 2.34375 5.46644 2.34375 5.94005V11.7364C2.34375 19.7177 7.16772 26.897 14.5571 29.9131C14.841 30.0289 15.159 30.0289 15.4429 29.9131C22.8322 26.897 27.6562 19.7177 27.6562 11.7364V5.94005C27.6562 5.46644 27.3712 5.03941 26.9337 4.85777ZM25.3125 11.7364C25.3125 18.5213 21.3281 24.7672 15 27.5552C8.84098 24.8417 4.6875 18.7052 4.6875 11.7364V6.7224L15 2.44072L25.3125 6.7224V11.7364ZM13.7047 15.6865L18.7417 10.6496C19.1993 10.192 19.9413 10.1919 20.3989 10.6496C20.8566 11.1073 20.8566 11.8492 20.3989 12.3068L14.5334 18.1724C14.0756 18.6301 13.3337 18.6299 12.8761 18.1724L9.60105 14.8973C9.14338 14.4397 9.14338 13.6977 9.60105 13.2401C10.0587 12.7825 10.8007 12.7824 11.2583 13.2401L13.7047 15.6865Z" fill="#4945FF"/>
</svg>
