<svg width="48" height="55" viewBox="0 0 48 55" fill="none" xmlns="http://www.w3.org/2000/svg">
<ellipse rx="10.7608" ry="24.0514" transform="matrix(0.702661 0.711525 -0.594726 0.803928 21.8651 27.1377)" fill="#4945FF" fill-opacity="0.1"/>
<g clip-path="url(#clip0_60447_1860)">
<path d="M22.6738 21.0624H22.695C23.4284 21.0624 24.1244 20.7713 24.6558 20.242C25.1926 19.7073 25.5005 18.9719 25.5005 18.2245C25.5005 17.2165 24.9009 16.258 24.5436 15.7764C24.0904 15.1656 23.4005 14.4375 22.688 14.4375C21.9754 14.4375 21.2856 15.1657 20.8324 15.7764C20.475 16.258 19.8755 17.2165 19.8755 18.2245C19.8755 18.9719 20.1834 19.7072 20.7202 20.242C21.2515 20.7713 21.9474 21.0624 22.6738 21.0624ZM22.6879 16.4754C23.0793 16.8742 23.6254 17.6799 23.6254 18.2245C23.6254 18.477 23.5186 18.7282 23.3324 18.9137C23.155 19.0903 22.9287 19.1874 22.6877 19.1874C22.6866 19.1874 22.6855 19.1874 22.6843 19.1874C22.6832 19.1874 22.6822 19.1874 22.681 19.1874C22.447 19.1874 22.2206 19.0903 22.0433 18.9137C21.8571 18.7282 21.7503 18.477 21.7503 18.2245C21.7503 17.6798 22.2964 16.8742 22.6879 16.4754Z" fill="#4945FF"/>
<path d="M47.3669 19.9085C47.1991 19.6199 46.8904 19.4423 46.5565 19.4423C46.5429 19.4423 45.1874 19.3429 45.1874 18.5048C45.1874 17.9871 44.7676 17.5673 44.2499 17.5673V16.6298C44.2499 15.079 42.9882 13.8174 41.4375 13.8174V11.626V11.626H42.375C42.8927 11.626 43.3125 11.2062 43.3125 10.6885V6.93847C43.3125 6.42069 42.8927 6.00098 42.375 6.00098H24.5625C23.3127 6.00098 22.1363 6.48922 21.2498 7.37572C20.3633 8.26222 19.875 9.43868 19.875 10.6885V12.5635C19.875 13.0812 20.2947 13.5009 20.8125 13.5009H24.5625C25.0802 13.5009 25.5 13.0812 25.5 12.5635V11.626H35.8124V11.626V13.8174C34.2616 13.8174 33 15.079 33 16.6298V17.5673C32.4823 17.5673 32.0625 17.9871 32.0625 18.5048C32.0625 19.343 30.7072 19.4423 30.6934 19.4423C30.3596 19.4423 30.051 19.6198 29.8831 19.9083C29.4689 20.6202 29.2499 21.4316 29.2499 22.2547V23.9323L26.4423 24.8379C26.2087 23.5679 25.0998 22.3323 23.2429 22.2572L21.1385 22.172C20.6201 22.1495 20.1848 22.5535 20.1639 23.0708C20.1429 23.5882 20.5453 24.0245 21.0626 24.0454L23.167 24.1306C24.1532 24.1705 24.6082 24.7817 24.6137 25.3326C24.6197 25.9463 24.1068 26.344 23.2414 26.3962L16.3157 26.8147C15.7989 26.8459 15.4052 27.2902 15.4364 27.807C15.4677 28.3239 15.912 28.717 16.4288 28.6863L23.3544 28.2678C24.6158 28.1916 25.4735 27.6567 25.9684 26.9609L36.0521 23.7084C37.0944 23.4319 38.8874 23.164 39.3674 24.4018C39.4084 24.5227 39.3195 24.639 39.1034 24.7474L26.5835 30.7667C24.4602 31.5341 19.7595 31.8489 15.978 32.1021C14.3036 32.2142 12.722 32.3202 11.526 32.4525C11.439 32.4622 11.3536 32.4839 11.2726 32.5172L1.87499 36.3806V28.5021H5.68638C6.20416 28.5021 6.62388 28.0824 6.62388 27.5646C6.62388 26.4751 7.07716 25.415 7.86766 24.6559C8.605 23.9477 9.55121 23.5801 10.529 23.6192L12.6328 23.7044C13.15 23.7257 13.5865 23.323 13.6074 22.8056C13.6283 22.2882 13.2259 21.8519 12.7086 21.831L10.6049 21.7458C9.11096 21.6845 7.67781 22.2385 6.56894 23.3036C5.64063 24.1952 5.02995 25.3716 4.82511 26.6271H0.937496C0.419717 26.6271 0 27.0468 0 27.5646V37.7797C0 38.0923 0.155906 38.3844 0.415592 38.5585C0.572248 38.6635 0.75431 38.7172 0.93759 38.7172C1.05815 38.7172 1.17918 38.6939 1.29393 38.6468L11.8625 34.302C13.0038 34.1804 14.511 34.0795 16.1033 33.9729C20.2338 33.6963 24.9155 33.3828 27.2736 32.5107C27.301 32.5005 27.3281 32.4891 27.3545 32.4763L29.2501 31.5651V51.1883C29.2501 52.7391 30.5118 54.0008 32.0626 54.0008H45.1875C46.7383 54.0008 48 52.7391 48 51.1883V22.2548C48 21.4317 47.7811 20.6204 47.3669 19.9085ZM24.5626 9.75096C24.0448 9.75096 23.6251 10.1707 23.6251 10.6885V11.626H21.7501V10.6885C21.7501 9.93949 22.0433 9.23384 22.5757 8.70153C23.108 8.16912 23.8136 7.87597 24.5625 7.87597H41.4376V9.75096H24.5626ZM39.5626 11.626C39.5626 11.626 39.5626 11.626 39.5626 11.626V13.8174H37.6874V11.626V11.626H39.5626ZM34.8751 17.5673V16.6298C34.8751 16.1129 35.2956 15.6923 35.8125 15.6923H41.4375C41.9545 15.6923 42.375 16.1129 42.375 16.6298V17.5673H34.8751ZM35.5447 21.9033C35.5296 21.9073 35.5145 21.9118 35.4997 21.9166L31.1252 23.3276V22.2548C31.1252 21.9146 31.1877 21.5778 31.3082 21.2615C32.2922 21.0873 33.3653 20.5009 33.7704 19.4423H43.4799C43.8849 20.5009 44.958 21.0872 45.9421 21.2615C46.0626 21.5778 46.1251 21.9146 46.1251 22.2548V26.4089H46.125H39.9719C41.2229 25.7651 41.4446 24.5712 41.1164 23.7257C40.3763 21.8169 38.3455 21.1524 35.5447 21.9033ZM36.0754 28.2838H46.1249H46.125V43.2843H46.1249H31.1251V30.6637L36.0754 28.2838ZM45.1875 52.1258H32.0626C31.5456 52.1258 31.1251 51.7052 31.1251 51.1883V45.1593H46.1249H46.125V51.1883C46.125 51.7052 45.7044 52.1258 45.1875 52.1258Z" fill="#4945FF"/>
<path d="M33.9375 38.5957H35.8125V40.4707C35.8125 40.9885 36.2323 41.4082 36.75 41.4082H40.5C41.0177 41.4082 41.4375 40.9885 41.4375 40.4707V38.5957H43.3125C43.8302 38.5957 44.25 38.176 44.25 37.6582V33.9082C44.25 33.3904 43.8302 32.9707 43.3125 32.9707H41.4375V31.0957C41.4375 30.5779 41.0177 30.1582 40.5 30.1582H36.75C36.2323 30.1582 35.8125 30.5779 35.8125 31.0957V32.9707H33.9375C33.4198 32.9707 33 33.3904 33 33.9082V37.6582C33 38.176 33.4197 38.5957 33.9375 38.5957ZM34.875 34.8458H36.75C37.2677 34.8458 37.6875 34.4261 37.6875 33.9083V32.0333H39.5625V33.9083C39.5625 34.4261 39.9823 34.8458 40.5 34.8458H42.375V36.7208H40.5C39.9823 36.7208 39.5625 37.1405 39.5625 37.6583V39.5333H37.6875V37.6583C37.6875 37.1405 37.2677 36.7208 36.75 36.7208H34.875V34.8458Z" fill="#4945FF"/>
<path d="M16.886 23.875C17.4038 23.875 17.8235 23.4553 17.8235 22.9375C17.8235 22.4197 17.4038 22 16.886 22H16.8854C16.3676 22 15.9482 22.4197 15.9482 22.9375C15.9482 23.4553 16.3682 23.875 16.886 23.875Z" fill="#4945FF"/>
</g>
<defs>
<clipPath id="clip0_60447_1860">
<rect width="48" height="48" fill="white" transform="translate(0 6)"/>
</clipPath>
</defs>
</svg>
