<svg width="155" height="26" viewBox="0 0 155 26" fill="none" xmlns="http://www.w3.org/2000/svg">
<path d="M15.24 11.08C16.4 11.52 17.31 12.18 17.97 13.06C18.63 13.94 18.96 14.95 18.96 16.09C18.96 17.39 18.52 18.52 17.64 19.48C16.76 20.44 15.57 21.18 14.07 21.7C12.57 22.2 10.92 22.45 9.12 22.45C7.7 22.45 6.25 22.28 4.77 21.94C3.31 21.6 1.91 21.09 0.57 20.41L2.34 16.27C3.28 16.75 4.28 17.12 5.34 17.38C6.42 17.62 7.46 17.74 8.46 17.74C9.78 17.74 10.86 17.53 11.7 17.11C12.54 16.67 12.96 16.06 12.96 15.28C12.96 14.66 12.7 14.2 12.18 13.9C11.66 13.6 10.96 13.45 10.08 13.45H4.71V9.1H9.6C10.4 9.1 11.02 8.94 11.46 8.62C11.9 8.3 12.12 7.87 12.12 7.33C12.12 6.65 11.78 6.13 11.1 5.77C10.42 5.39 9.54 5.2 8.46 5.2C7.58 5.2 6.65 5.33 5.67 5.59C4.69 5.83 3.76 6.18 2.88 6.64L1.14 2.14C3.38 1.06 5.84 0.519999 8.52 0.519999C10.24 0.519999 11.83 0.769999 13.29 1.27C14.77 1.75 15.94 2.45 16.8 3.37C17.68 4.29 18.12 5.38 18.12 6.64C18.12 7.62 17.86 8.5 17.34 9.28C16.84 10.04 16.14 10.64 15.24 11.08ZM41.1019 22L41.0719 10.87L35.6719 19.93H33.0319L27.6319 11.11V22H22.1719V0.999999H27.0619L34.4419 13.12L41.6419 0.999999H46.5319L46.5919 22H41.1019Z" fill="#3C39D0"/>
<path d="M57.3586 5.47C60.0586 5.47 62.1186 6.09 63.5386 7.33C64.9586 8.55 65.6686 10.43 65.6686 12.97V22H60.3586V19.9C59.5386 21.48 57.9386 22.27 55.5586 22.27C54.2986 22.27 53.2086 22.05 52.2886 21.61C51.3686 21.17 50.6686 20.58 50.1886 19.84C49.7286 19.08 49.4986 18.22 49.4986 17.26C49.4986 15.72 50.0886 14.53 51.2686 13.69C52.4486 12.83 54.2686 12.4 56.7286 12.4H59.9686C59.8686 10.68 58.7186 9.82 56.5186 9.82C55.7386 9.82 54.9486 9.95 54.1486 10.21C53.3486 10.45 52.6686 10.79 52.1086 11.23L50.1886 7.36C51.0886 6.76 52.1786 6.3 53.4586 5.98C54.7586 5.64 56.0586 5.47 57.3586 5.47ZM57.1486 18.67C57.8086 18.67 58.3886 18.51 58.8886 18.19C59.3886 17.87 59.7486 17.4 59.9686 16.78V15.37H57.5086C55.8486 15.37 55.0186 15.92 55.0186 17.02C55.0186 17.52 55.2086 17.92 55.5886 18.22C55.9686 18.52 56.4886 18.67 57.1486 18.67ZM77.2577 22.27C75.4577 22.27 73.8477 21.91 72.4277 21.19C71.0077 20.47 69.8977 19.47 69.0977 18.19C68.3177 16.91 67.9277 15.46 67.9277 13.84C67.9277 12.22 68.3177 10.78 69.0977 9.52C69.8977 8.24 71.0077 7.25 72.4277 6.55C73.8477 5.83 75.4577 5.47 77.2577 5.47C79.0977 5.47 80.6877 5.87 82.0277 6.67C83.3677 7.45 84.3177 8.54 84.8777 9.94L80.4677 12.19C79.7277 10.73 78.6477 10 77.2277 10C76.2077 10 75.3577 10.34 74.6777 11.02C74.0177 11.7 73.6877 12.64 73.6877 13.84C73.6877 15.06 74.0177 16.02 74.6777 16.72C75.3577 17.4 76.2077 17.74 77.2277 17.74C78.6477 17.74 79.7277 17.01 80.4677 15.55L84.8777 17.8C84.3177 19.2 83.3677 20.3 82.0277 21.1C80.6877 21.88 79.0977 22.27 77.2577 22.27ZM94.8818 16.21H92.9618V22H87.2618V5.74H92.9618V11.74H95.0018L98.9918 5.74H105.022L99.5618 13.54L105.382 22H98.6618L94.8818 16.21ZM107.272 5.74H112.942V14.26L119.752 5.74H125.002V22H119.302V13.45L112.552 22H107.272V5.74ZM129.272 22.144C128.78 22.144 128.366 21.976 128.03 21.64C127.694 21.304 127.526 20.884 127.526 20.38C127.526 19.864 127.694 19.45 128.03 19.138C128.366 18.814 128.78 18.652 129.272 18.652C129.764 18.652 130.178 18.814 130.514 19.138C130.85 19.45 131.018 19.864 131.018 20.38C131.018 20.884 130.85 21.304 130.514 21.64C130.178 21.976 129.764 22.144 129.272 22.144ZM138.681 12.172C139.581 12.172 140.397 12.382 141.129 12.802C141.873 13.21 142.455 13.792 142.875 14.548C143.295 15.292 143.505 16.162 143.505 17.158C143.505 18.154 143.295 19.03 142.875 19.786C142.455 20.53 141.873 21.112 141.129 21.532C140.397 21.94 139.581 22.144 138.681 22.144C137.445 22.144 136.473 21.754 135.765 20.974V25.492H132.957V12.316H135.639V13.432C136.335 12.592 137.349 12.172 138.681 12.172ZM138.195 19.84C138.915 19.84 139.503 19.6 139.959 19.12C140.427 18.628 140.661 17.974 140.661 17.158C140.661 16.342 140.427 15.694 139.959 15.214C139.503 14.722 138.915 14.476 138.195 14.476C137.475 14.476 136.881 14.722 136.413 15.214C135.957 15.694 135.729 16.342 135.729 17.158C135.729 17.974 135.957 18.628 136.413 19.12C136.881 19.6 137.475 19.84 138.195 19.84ZM154.911 12.316L150.537 22.594C150.093 23.71 149.541 24.496 148.881 24.952C148.233 25.408 147.447 25.636 146.523 25.636C146.019 25.636 145.521 25.558 145.029 25.402C144.537 25.246 144.135 25.03 143.823 24.754L144.849 22.756C145.065 22.948 145.311 23.098 145.587 23.206C145.875 23.314 146.157 23.368 146.433 23.368C146.817 23.368 147.129 23.272 147.369 23.08C147.609 22.9 147.825 22.594 148.017 22.162L148.053 22.072L143.859 12.316H146.757L149.475 18.886L152.211 12.316H154.911Z" fill="#2B2A2A"/>
</svg>
