<svg width="22" height="24" viewBox="0 0 22 24" fill="none" xmlns="http://www.w3.org/2000/svg">
<ellipse opacity="0.18" cx="10.9326" cy="11.5355" rx="5" ry="10.9286" transform="rotate(40.8765 10.9326 11.5355)" fill="#4945FF" fill-opacity="0.4"/>
<path d="M11 4C7.12297 4 3.96875 7.15422 3.96875 11.0312C3.96875 12.3412 4.3316 13.6195 5.01832 14.7286L10.5998 23.723C10.7067 23.8953 10.895 24 11.0976 24C11.0992 24 11.1007 24 11.1023 24C11.3066 23.9984 11.4954 23.8905 11.6003 23.7152L17.0395 14.6336C17.6883 13.548 18.0312 12.3023 18.0312 11.0312C18.0312 7.15422 14.877 4 11 4ZM16.0338 14.032L11.0887 22.2885L6.01434 14.1112C5.44273 13.188 5.13281 12.123 5.13281 11.0312C5.13281 7.80039 7.76914 5.16406 11 5.16406C14.2309 5.16406 16.8633 7.80039 16.8633 11.0312C16.8633 12.0907 16.5738 13.1284 16.0338 14.032Z" fill="#4945FF"/>
<path d="M11 7.51562C9.06148 7.51562 7.48438 9.09273 7.48438 11.0312C7.48438 12.9574 9.03582 14.5469 11 14.5469C12.9884 14.5469 14.5156 12.9362 14.5156 11.0312C14.5156 9.09273 12.9385 7.51562 11 7.51562ZM11 13.3828C9.7009 13.3828 8.64844 12.3268 8.64844 11.0312C8.64844 9.73891 9.70766 8.67969 11 8.67969C12.2923 8.67969 13.3477 9.73891 13.3477 11.0312C13.3477 12.3079 12.3197 13.3828 11 13.3828Z" fill="#4945FF"/>
</svg>
