<svg width="66" height="71" viewBox="0 0 66 71" fill="none" xmlns="http://www.w3.org/2000/svg">
<ellipse cx="32.7977" cy="34.6065" rx="15" ry="32.7857" transform="rotate(40.8765 32.7977 34.6065)" fill="#4945FF" fill-opacity="0.1"/>
<path d="M56.2015 21.0188L54.9812 19.7984C53.531 18.35 51.5651 17.5365 49.5155 17.5365C47.4659 17.5365 45.5001 18.35 44.0499 19.7984L39.796 24.0523L38.3694 22.6258C37.9429 22.2048 37.3841 21.9441 36.7874 21.8878C36.1908 21.8314 35.593 21.9828 35.0952 22.3164L27.8421 27.2492C23.2818 30.3486 19.3484 34.2819 16.2491 38.8422L11.3163 46.0953C10.9827 46.5932 10.8313 47.1909 10.8877 47.7875C10.944 48.3842 11.2047 48.943 11.6257 49.3695L13.0522 50.7961L8.79832 55.05C7.34993 56.5002 6.53638 58.466 6.53638 60.5156C6.53638 62.5652 7.34993 64.5311 8.79832 65.9813L10.0186 67.2016C11.4694 68.6489 13.435 69.4617 15.4843 69.4617C17.5335 69.4617 19.4991 68.6489 20.9499 67.2016L25.2038 62.9477L26.6304 64.3742C26.8713 64.6132 27.157 64.8022 27.4711 64.9305C27.7852 65.0588 28.1215 65.1238 28.4608 65.1219C28.9747 65.1211 29.477 64.9686 29.9046 64.6836L37.1577 59.7508C41.718 56.6515 45.6514 52.7181 48.7507 48.1578L53.6835 40.9047C53.9685 40.4771 54.121 39.9748 54.1218 39.4609C54.1237 39.1216 54.0587 38.7853 53.9304 38.4712C53.8021 38.1571 53.6131 37.8714 53.3741 37.6305L51.9476 36.2039L56.2015 31.95C57.6499 30.4998 58.4634 28.534 58.4634 26.4844C58.4634 24.4348 57.6499 22.469 56.2015 21.0188ZM19.7382 65.9813C18.6092 67.1081 17.0793 67.7409 15.4843 67.7409C13.8892 67.7409 12.3593 67.1081 11.2304 65.9813L10.0186 64.7695C8.89183 63.6406 8.25897 62.1107 8.25897 60.5156C8.25897 58.9206 8.89183 57.3907 10.0186 56.2617L14.2725 52.0078L14.8741 52.618L10.6202 56.8719C9.6546 57.8387 9.11223 59.1492 9.11223 60.5156C9.11223 61.882 9.6546 63.1926 10.6202 64.1594L11.8405 65.3797C12.8085 66.343 14.1186 66.8838 15.4843 66.8838C16.8499 66.8838 18.16 66.343 19.128 65.3797L23.3819 61.1258L23.9921 61.7273L19.7382 65.9813ZM16.0944 53.8297L22.1702 59.9055L17.9163 64.1594C17.2706 64.8032 16.396 65.1647 15.4843 65.1647C14.5725 65.1647 13.6979 64.8032 13.0522 64.1594L11.8405 62.9477C11.1967 62.302 10.8352 61.4274 10.8352 60.5156C10.8352 59.6038 11.1967 58.7293 11.8405 58.0836L16.0944 53.8297ZM52.1538 38.8508C52.2954 38.9922 52.3832 39.1787 52.402 39.3779C52.4208 39.5772 52.3695 39.7767 52.2569 39.9422L47.3327 47.1867C44.3507 51.5695 40.5694 55.3508 36.1866 58.3328L28.9421 63.257C28.7766 63.3696 28.577 63.4209 28.3778 63.4021C28.1786 63.3833 27.9921 63.2955 27.8507 63.1539L23.9921 59.3039V59.2953L20.3483 55.6516L12.846 48.1492C12.7044 48.0078 12.6166 47.8213 12.5978 47.6221C12.579 47.4229 12.6303 47.2233 12.7429 47.0578L17.6671 39.8133C20.649 35.4305 24.4304 31.6492 28.8132 28.6672L36.0577 23.743C36.2019 23.6446 36.3731 23.5935 36.5476 23.5969C36.773 23.5978 36.989 23.6873 37.1491 23.8461L41.0077 27.6961V27.7047L52.1538 38.8508ZM42.8296 27.0945L47.0835 22.8406C47.7292 22.1968 48.6037 21.8353 49.5155 21.8353C50.4273 21.8353 51.3019 22.1968 51.9476 22.8406L53.1593 24.0523C53.8031 24.698 54.1646 25.5726 54.1646 26.4844C54.1646 27.3962 53.8031 28.2708 53.1593 28.9164L48.9054 33.1703L42.8296 27.0945ZM50.7272 34.9922L50.1257 34.382L54.3796 30.1281C55.3452 29.1613 55.8876 27.8508 55.8876 26.4844C55.8876 25.118 55.3452 23.8074 54.3796 22.8406L53.1593 21.6203C52.1913 20.657 50.8812 20.1163 49.5155 20.1163C48.1499 20.1163 46.8398 20.657 45.8718 21.6203L41.6179 25.8742L41.0077 25.2727L45.2616 21.0188C46.3906 19.8919 47.9205 19.2591 49.5155 19.2591C51.1106 19.2591 52.6405 19.8919 53.7694 21.0188L54.9812 22.2305C56.108 23.3594 56.7408 24.8893 56.7408 26.4844C56.7408 28.0794 56.108 29.6093 54.9812 30.7383L50.7272 34.9922Z" fill="#4945FF"/>
<path d="M44.0456 35.6006C43.8844 35.4395 43.6659 35.349 43.438 35.349C43.2101 35.349 42.9916 35.4395 42.8304 35.6006L24.6005 53.8305C24.5184 53.9098 24.4529 54.0046 24.4079 54.1095C24.3629 54.2143 24.3392 54.3271 24.3382 54.4412C24.3372 54.5553 24.3589 54.6685 24.4021 54.7741C24.4453 54.8797 24.5091 54.9757 24.5898 55.0563C24.6705 55.137 24.7665 55.2008 24.8721 55.2441C24.9777 55.2873 25.0909 55.309 25.205 55.308C25.3191 55.307 25.4319 55.2833 25.5367 55.2383C25.6415 55.1932 25.7364 55.1278 25.8156 55.0457L44.0456 36.8158C44.2067 36.6546 44.2972 36.4361 44.2972 36.2082C44.2972 35.9803 44.2067 35.7618 44.0456 35.6006Z" fill="#4945FF"/>
<path d="M40.3993 31.9543C40.2382 31.7932 40.0196 31.7027 39.7918 31.7027C39.5639 31.7027 39.3453 31.7932 39.1842 31.9543L20.9543 50.1842C20.8722 50.2635 20.8067 50.3583 20.7617 50.4632C20.7166 50.568 20.6929 50.6808 20.6919 50.7949C20.6909 50.909 20.7127 51.0222 20.7559 51.1278C20.7991 51.2334 20.8629 51.3294 20.9436 51.41C21.0243 51.4907 21.1202 51.5545 21.2259 51.5978C21.3315 51.641 21.4446 51.6627 21.5587 51.6617C21.6728 51.6607 21.7856 51.637 21.8905 51.592C21.9953 51.5469 22.0901 51.4815 22.1694 51.3994L40.3993 33.1695C40.5604 33.0083 40.6509 32.7898 40.6509 32.5619C40.6509 32.334 40.5604 32.1155 40.3993 31.9543Z" fill="#4945FF"/>
<path d="M36.7528 28.3079C36.5917 28.1468 36.3731 28.0563 36.1453 28.0563C35.9174 28.0563 35.6988 28.1468 35.5377 28.3079L17.3078 46.5387C17.2257 46.618 17.1602 46.7128 17.1152 46.8177C17.0701 46.9225 17.0464 47.0353 17.0454 47.1494C17.0445 47.2635 17.0662 47.3766 17.1094 47.4823C17.1526 47.5879 17.2164 47.6838 17.2971 47.7645C17.3778 47.8452 17.4738 47.909 17.5794 47.9522C17.685 47.9954 17.7981 48.0172 17.9123 48.0162C18.0264 48.0152 18.1391 47.9915 18.244 47.9465C18.3488 47.9014 18.4436 47.8359 18.5229 47.7539L36.7528 29.5231C36.9139 29.3619 37.0044 29.1434 37.0044 28.9155C37.0044 28.6877 36.9139 28.4691 36.7528 28.3079Z" fill="#4945FF"/>
<path d="M28.2467 57.4769C28.1647 57.5562 28.0992 57.651 28.0541 57.7558C28.0091 57.8607 27.9854 57.9734 27.9844 58.0876C27.9834 58.2017 28.0052 58.3148 28.0484 58.4204C28.0916 58.5261 28.1554 58.622 28.2361 58.7027C28.3168 58.7834 28.4127 58.8472 28.5183 58.8904C28.6239 58.9336 28.7371 58.9554 28.8512 58.9544C28.9653 58.9534 29.0781 58.9297 29.1829 58.8846C29.2878 58.8396 29.3826 58.7741 29.4619 58.692L47.6918 40.4613C47.7739 40.382 47.8394 40.2872 47.8844 40.1823C47.9294 40.0775 47.9531 39.9647 47.9541 39.8506C47.9551 39.7365 47.9334 39.6233 47.8902 39.5177C47.847 39.4121 47.7832 39.3162 47.7025 39.2355C47.6218 39.1548 47.5258 39.091 47.4202 39.0478C47.3146 39.0045 47.2014 38.9828 47.0873 38.9838C46.9732 38.9848 46.8605 39.0085 46.7556 39.0535C46.6508 39.0986 46.5559 39.164 46.4767 39.2461L28.2467 57.4769Z" fill="#4945FF"/>
</svg>
