<svg width="40" height="40" viewBox="0 0 40 40" fill="none" xmlns="http://www.w3.org/2000/svg">
<path d="M37.2375 3.65001L36.35 2.76251C35.2953 1.70913 33.8656 1.11746 32.375 1.11746C30.8844 1.11746 29.4547 1.70913 28.4 2.76251L25.3062 5.85626L24.2687 4.81876C23.9585 4.51262 23.5521 4.32302 23.1182 4.28202C22.6843 4.24103 22.2496 4.35115 21.8875 4.59376L16.6125 8.18126C13.2959 10.4353 10.4353 13.2959 8.18123 16.6125L4.59373 21.8875C4.35112 22.2496 4.241 22.6843 4.28199 23.1182C4.32299 23.5521 4.51259 23.9586 4.81873 24.2688L5.85623 25.3063L2.76248 28.4C1.7091 29.4547 1.11743 30.8844 1.11743 32.375C1.11743 33.8656 1.7091 35.2953 2.76248 36.35L3.64998 37.2375C4.70508 38.2901 6.13461 38.8813 7.62498 38.8813C9.11536 38.8813 10.5449 38.2901 11.6 37.2375L14.6937 34.1438L15.7312 35.1813C15.9064 35.355 16.1142 35.4925 16.3427 35.5858C16.5711 35.6791 16.8157 35.7264 17.0625 35.725C17.4362 35.7245 17.8015 35.6136 18.1125 35.4063L23.3875 31.8188C26.7041 29.5647 29.5647 26.7041 31.8187 23.3875L35.4062 18.1125C35.6136 17.8015 35.7244 17.4363 35.725 17.0625C35.7264 16.8157 35.6791 16.5711 35.5858 16.3427C35.4925 16.1142 35.355 15.9065 35.1812 15.7313L34.1437 14.6938L37.2375 11.6C38.2909 10.5453 38.8825 9.11564 38.8825 7.62501C38.8825 6.13438 38.2909 4.7047 37.2375 3.65001ZM10.7187 36.35C9.89768 37.1695 8.78503 37.6298 7.62498 37.6298C6.46494 37.6298 5.35229 37.1695 4.53123 36.35L3.64998 35.4688C2.83048 34.6477 2.37023 33.5351 2.37023 32.375C2.37023 31.215 2.83048 30.1023 3.64998 29.2813L6.74373 26.1875L7.18123 26.6313L4.08748 29.725C3.38523 30.4281 2.99078 31.3813 2.99078 32.375C2.99078 33.3688 3.38523 34.3219 4.08748 35.025L4.97498 35.9125C5.679 36.6131 6.63178 37.0064 7.62498 37.0064C8.61818 37.0064 9.57097 36.6131 10.275 35.9125L13.3687 32.8188L13.8125 33.2563L10.7187 36.35ZM8.06873 27.5125L12.4875 31.9313L9.39373 35.025C8.92416 35.4932 8.2881 35.7562 7.62498 35.7562C6.96187 35.7562 6.3258 35.4932 5.85623 35.025L4.97498 34.1438C4.50676 33.6742 4.24383 33.0381 4.24383 32.375C4.24383 31.7119 4.50676 31.0758 4.97498 30.6063L8.06873 27.5125ZM34.2937 16.6188C34.3967 16.7216 34.4606 16.8572 34.4742 17.0021C34.4879 17.147 34.4506 17.2922 34.3687 17.4125L30.7875 22.6813C28.6188 25.8687 25.8687 28.6188 22.6812 30.7875L17.4125 34.3688C17.2921 34.4506 17.147 34.488 17.0021 34.4743C16.8572 34.4606 16.7216 34.3967 16.6187 34.2938L13.8125 31.4938V31.4875L11.1625 28.8375L5.70623 23.3813C5.60326 23.2784 5.53942 23.1428 5.52573 22.9979C5.51204 22.853 5.54935 22.7079 5.63123 22.5875L9.21248 17.3188C11.3812 14.1313 14.1313 11.3812 17.3187 9.21251L22.5875 5.63126C22.6923 5.55972 22.8168 5.52258 22.9437 5.52501C23.1077 5.5257 23.2648 5.5908 23.3812 5.70626L26.1875 8.50626V8.51251L34.2937 16.6188ZM27.5125 8.06876L30.6062 4.97501C31.0758 4.50679 31.7119 4.24386 32.375 4.24386C33.0381 4.24386 33.6742 4.50679 34.1437 4.97501L35.025 5.85626C35.4932 6.32583 35.7561 6.96189 35.7561 7.62501C35.7561 8.28813 35.4932 8.92419 35.025 9.39376L31.9312 12.4875L27.5125 8.06876ZM33.2562 13.8125L32.8187 13.3688L35.9125 10.275C36.6147 9.57189 37.0092 8.61877 37.0092 7.62501C37.0092 6.63126 36.6147 5.67814 35.9125 4.97501L35.025 4.08751C34.321 3.38694 33.3682 2.99364 32.375 2.99364C31.3818 2.99364 30.429 3.38694 29.725 4.08751L26.6312 7.18126L26.1875 6.74376L29.2812 3.65001C30.1023 2.83051 31.2149 2.37026 32.375 2.37026C33.535 2.37026 34.6477 2.83051 35.4687 3.65001L36.35 4.53126C37.1695 5.35231 37.6297 6.46497 37.6297 7.62501C37.6297 8.78506 37.1695 9.89771 36.35 10.7188L33.2562 13.8125Z" fill="#4945FF"/>
<path d="M28.3969 14.255C28.2797 14.1378 28.1207 14.072 27.955 14.072C27.7893 14.072 27.6303 14.1378 27.5131 14.255L14.255 27.5131C14.1953 27.5708 14.1477 27.6398 14.115 27.716C14.0822 27.7923 14.065 27.8743 14.0642 27.9573C14.0635 28.0402 14.0793 28.1225 14.1108 28.1994C14.1422 28.2762 14.1886 28.346 14.2473 28.4046C14.3059 28.4633 14.3757 28.5097 14.4525 28.5412C14.5294 28.5726 14.6117 28.5884 14.6946 28.5877C14.7776 28.5869 14.8596 28.5697 14.9359 28.537C15.0121 28.5042 15.0811 28.4566 15.1388 28.3969L28.3969 15.1388C28.5141 15.0216 28.5799 14.8626 28.5799 14.6969C28.5799 14.5312 28.5141 14.3722 28.3969 14.255Z" fill="#4945FF"/>
<path d="M25.745 11.6032C25.6278 11.486 25.4689 11.4202 25.3032 11.4202C25.1374 11.4202 24.9785 11.486 24.8613 11.6032L11.6032 24.8613C11.5435 24.9189 11.4959 24.9879 11.4631 25.0642C11.4303 25.1404 11.4131 25.2224 11.4124 25.3054C11.4117 25.3884 11.4275 25.4707 11.4589 25.5475C11.4903 25.6243 11.5367 25.6941 11.5954 25.7528C11.6541 25.8115 11.7239 25.8579 11.8007 25.8893C11.8775 25.9207 11.9598 25.9365 12.0428 25.9358C12.1258 25.9351 12.2078 25.9178 12.284 25.8851C12.3603 25.8523 12.4293 25.8047 12.4869 25.745L25.745 12.4869C25.8622 12.3697 25.928 12.2108 25.928 12.045C25.928 11.8793 25.8622 11.7204 25.745 11.6032Z" fill="#4945FF"/>
<path d="M23.0931 8.95124C22.9758 8.83407 22.8169 8.76825 22.6512 8.76825C22.4854 8.76825 22.3265 8.83407 22.2093 8.95124L8.95118 22.21C8.89149 22.2676 8.84387 22.3366 8.81112 22.4128C8.77836 22.4891 8.76112 22.5711 8.7604 22.6541C8.75968 22.7371 8.77549 22.8194 8.80692 22.8962C8.83834 22.973 8.88475 23.0428 8.94343 23.1015C9.00212 23.1602 9.0719 23.2066 9.14871 23.238C9.22552 23.2694 9.30782 23.2852 9.39081 23.2845C9.47379 23.2838 9.55581 23.2665 9.63206 23.2338C9.70831 23.201 9.77728 23.1534 9.83493 23.0937L23.0931 9.83499C23.2102 9.71778 23.276 9.55884 23.276 9.39312C23.276 9.22739 23.2102 9.06844 23.0931 8.95124Z" fill="#4945FF"/>
<path d="M16.9069 30.165C16.8472 30.2227 16.7996 30.2916 16.7668 30.3679C16.7341 30.4441 16.7168 30.5262 16.7161 30.6091C16.7154 30.6921 16.7312 30.7744 16.7626 30.8512C16.794 30.9281 16.8404 30.9978 16.8991 31.0565C16.9578 31.1152 17.0276 31.1616 17.1044 31.193C17.1812 31.2245 17.2635 31.2403 17.3465 31.2396C17.4295 31.2388 17.5115 31.2216 17.5877 31.1888C17.664 31.1561 17.733 31.1085 17.7906 31.0488L31.0487 17.79C31.1084 17.7324 31.156 17.6634 31.1888 17.5872C31.2216 17.5109 31.2388 17.4289 31.2395 17.3459C31.2402 17.2629 31.2244 17.1806 31.193 17.1038C31.1616 17.027 31.1152 16.9572 31.0565 16.8985C30.9978 16.8399 30.928 16.7935 30.8512 16.762C30.7744 16.7306 30.6921 16.7148 30.6091 16.7155C30.5261 16.7162 30.4441 16.7335 30.3679 16.7662C30.2916 16.799 30.2226 16.8466 30.165 16.9063L16.9069 30.165Z" fill="#4945FF"/>
</svg>
