<svg width="40" height="40" viewBox="0 0 40 40" fill="none" xmlns="http://www.w3.org/2000/svg">
<g clip-path="url(#clip0_60447_1782)">
<path d="M39.9902 20C39.9902 19.7088 39.8281 19.4418 39.5698 19.3073L32.0373 15.388L39.5698 11.4687C39.8281 11.3342 39.9902 11.0672 39.9902 10.776C39.9902 10.4848 39.8281 10.2177 39.5698 10.0833L33.0819 6.70744C32.699 6.5084 32.2278 6.65715 32.0287 7.0397C31.8297 7.42224 31.9784 7.8938 32.361 8.09285L37.5176 10.7759L20.0001 19.8907L2.48261 10.7759L20.0001 1.66111L26.1273 4.84922C26.5101 5.04826 26.9814 4.89943 27.1804 4.51696C27.3795 4.13442 27.2307 3.66285 26.8482 3.46381L20.3605 0.0881399C20.1345 -0.02938 19.8656 -0.02938 19.6396 0.0881399L0.430426 10.0832C0.172039 10.2176 0.0100098 10.4846 0.0100098 10.7759C0.0100098 11.0672 0.172039 11.3341 0.430426 11.4686L7.96286 15.3879L0.430426 19.3073C0.172039 19.4418 0.0100098 19.7088 0.0100098 20C0.0100098 20.2912 0.172039 20.5582 0.430426 20.6927L7.96286 24.612L0.430426 28.5314C0.172039 28.6659 0.0100098 28.9329 0.0100098 29.2241C0.0100098 29.5153 0.172039 29.7823 0.430426 29.9168L19.6396 39.9118C19.7526 39.9706 19.8763 40 20.0001 40C20.1239 40 20.2475 39.9706 20.3605 39.9118L39.5698 29.9168C39.8281 29.7823 39.9902 29.5153 39.9902 29.2241C39.9902 28.9329 39.8281 28.6659 39.5698 28.5314L32.0373 24.612L39.5698 20.6927C39.8281 20.5582 39.9902 20.2912 39.9902 20ZM20.3605 21.4636L30.3455 16.2682L32.6736 17.4795L15.184 26.6088L12.0682 24.9876L19.2402 21.2559L19.6396 21.4636C19.7526 21.5224 19.8762 21.5518 20 21.5518C20.1238 21.5518 20.2475 21.5224 20.3605 21.4636ZM17.5484 20.3755L10.3764 24.1073L7.27539 22.4938L14.4475 18.762L17.5484 20.3755ZM9.65468 16.2682L12.7556 17.8817L5.58357 21.6135L2.48253 19.9999L9.65468 16.2682ZM37.5176 29.2241L20.0001 38.3389L2.48261 29.2241L9.65468 25.4924L19.6396 30.6878C19.7526 30.7465 19.8763 30.776 20.0001 30.776C20.1239 30.776 20.2475 30.7466 20.3605 30.6878L30.3455 25.4924L37.5176 29.2241ZM20.0001 29.1148L16.8741 27.4882L34.3637 18.359L37.5176 20L20.0001 29.1148Z" fill="#4945FF"/>
<path d="M29.6048 6.55929C29.8102 6.55929 30.0117 6.47573 30.1568 6.33049C30.3021 6.18525 30.3857 5.98379 30.3857 5.77842C30.3857 5.57306 30.3021 5.37159 30.1568 5.22635C30.0117 5.08111 29.8102 4.99756 29.6048 4.99756C29.3995 4.99756 29.198 5.08111 29.0528 5.22635C28.9075 5.37159 28.824 5.57306 28.824 5.77842C28.824 5.98379 28.9074 6.18525 29.0528 6.33049C29.1981 6.47573 29.3995 6.55929 29.6048 6.55929Z" fill="#4945FF"/>
</g>
<defs>
<clipPath id="clip0_60447_1782">
<rect width="40" height="40" fill="white"/>
</clipPath>
</defs>
</svg>
