<svg width="66" height="70" viewBox="0 0 66 70" fill="none" xmlns="http://www.w3.org/2000/svg">
<ellipse cx="32.7978" cy="34.6065" rx="15" ry="32.7857" transform="rotate(40.8765 32.7978 34.6065)" fill="#4945FF" fill-opacity="0.1"/>
<g clip-path="url(#clip0_60447_788)">
<path d="M57.6512 36.9618L52.0651 22.438C51.0066 19.6924 47.9227 18.3249 45.1771 19.3834C45.1373 19.3988 45.0975 19.4146 45.058 19.4309L17.1425 31.0027C14.4845 32.0931 13.1781 35.1018 14.1963 37.7884L14.9639 39.8372H13.2031C10.3309 39.8404 8.00323 42.1681 8 45.0403V63.7716C8.00323 66.6438 10.3309 68.9715 13.2031 68.9747H48.5844C51.4567 68.9715 53.7843 66.6438 53.7876 63.7716V45.0403C53.7859 44.7579 53.7608 44.4761 53.7126 44.1978L54.6792 43.8066C57.361 42.7073 58.679 39.6718 57.6512 36.9618ZM13.2031 41.5023H48.5844C50.453 41.5076 51.9944 42.9669 52.1017 44.8323H9.68581C9.79321 42.9668 11.3346 41.5075 13.2031 41.5023ZM21.5706 36.4873L27.135 33.7043L28.2789 36.5656L22.7145 39.3478L21.5706 36.4873ZM52.1226 63.7717C52.1203 65.7248 50.5376 67.3075 48.5844 67.3098H13.2031C11.25 67.3075 9.66729 65.7248 9.665 63.7717V53.1573H52.1226V63.7717ZM52.1226 51.4923H9.665V46.4973H52.1226V51.4923ZM54.0548 42.2682L53.1848 42.6203C52.2863 40.9112 50.5154 39.84 48.5844 39.8373H25.4592L29.7091 37.7119C30.0967 37.5185 30.2712 37.0602 30.1104 36.658L28.3447 32.2457C28.1739 31.8189 27.6895 31.6112 27.2626 31.7818C27.2411 31.7905 27.22 31.7999 27.1992 31.8103L20.1405 35.3418C19.7533 35.5356 19.5792 35.9937 19.74 36.3957L21.117 39.8373H16.7413L15.7556 37.2083C15.0568 35.3624 15.9543 33.2957 17.7802 32.5463L45.6948 20.9745C47.561 20.2007 49.7011 21.0862 50.475 22.9523C50.4871 22.9813 50.4988 23.0106 50.51 23.0399L56.0961 37.5637C56.8028 39.4259 55.8975 41.5122 54.0548 42.2682Z" fill="#4945FF"/>
<path d="M37.9466 64.9688C39.498 65.8701 41.4137 65.8701 42.965 64.9688C45.3504 66.3546 48.4075 65.5443 49.7933 63.159C51.1791 60.7736 50.3688 57.7165 47.9835 56.3307C47.2179 55.8859 46.3479 55.6526 45.4625 55.6547C44.5849 55.6551 43.723 55.8883 42.965 56.3307C40.5797 54.9449 37.5226 55.7551 36.1368 58.1404C34.751 60.5259 35.5613 63.5829 37.9466 64.9688ZM44.357 57.5229C44.7111 57.3924 45.0851 57.3238 45.4625 57.3198C47.3016 57.3198 48.7925 58.8107 48.7925 60.6498C48.7925 62.4889 47.3016 63.9798 45.4625 63.9798C45.0851 63.9759 44.7111 63.9072 44.357 63.7767C45.8309 61.9526 45.8309 59.3469 44.357 57.5229ZM42.965 58.4703C44.0751 59.7114 44.0751 61.5882 42.965 62.8293C41.855 61.5882 41.855 59.7113 42.965 58.4703ZM40.4675 57.3198C40.845 57.3237 41.219 57.3924 41.5731 57.5229C40.0991 59.3469 40.0991 61.9527 41.5731 63.7767C41.219 63.9072 40.845 63.9759 40.4675 63.9798C38.6284 63.9798 37.1375 62.4889 37.1375 60.6498C37.1375 58.8106 38.6284 57.3198 40.4675 57.3198Z" fill="#4945FF"/>
<path d="M43.1168 36.2061L43.7931 37.7276L51.7352 34.1972L51.0589 32.6757L43.1168 36.2061Z" fill="#4945FF"/>
<path d="M49.2865 29.1511L37.8148 34.446L38.5123 35.9571L49.984 30.6622L49.2865 29.1511Z" fill="#4945FF"/>
</g>
<defs>
<clipPath id="clip0_60447_788">
<rect width="50" height="50" fill="white" transform="translate(8 19)"/>
</clipPath>
</defs>
</svg>
