<svg width="23" height="24" viewBox="0 0 23 24" fill="none" xmlns="http://www.w3.org/2000/svg">
<ellipse opacity="0.18" cx="10.9321" cy="11.5355" rx="5" ry="10.9286" transform="rotate(40.8765 10.9321 11.5355)" fill="#4945FF" fill-opacity="0.4"/>
<g clip-path="url(#clip0_60447_1178)">
<path d="M17.3744 20C16.7288 20 16.0887 19.8859 15.4627 19.6585C12.7051 18.6567 10.1455 17.0251 8.06038 14.9401C5.97531 12.8551 4.34374 10.2954 3.34202 7.53774C3.02012 6.65152 2.92512 5.73672 3.05977 4.81863C3.18589 3.95867 3.519 3.12382 4.02312 2.40432C4.52947 1.68165 5.20452 1.08058 5.97527 0.666105C6.79719 0.224131 7.6943 0 8.64176 0C8.93644 0 9.19112 0.20589 9.25287 0.494003L10.2338 5.0719C10.2783 5.2792 10.2146 5.49489 10.0647 5.64481L8.38845 7.32099C9.96972 10.4648 12.5355 13.0307 15.6794 14.6119L17.3556 12.9357C17.5055 12.7858 17.7212 12.7222 17.9285 12.7665L22.5064 13.7475C22.7945 13.8093 23.0004 14.064 23.0004 14.3586C23.0004 15.3061 22.7763 16.2032 22.3342 17.0252C21.9198 17.7959 21.3187 18.471 20.596 18.9773C19.8766 19.4814 19.0417 19.8145 18.1817 19.9407C17.9122 19.9802 17.6428 20 17.3744 20ZM8.14241 1.27729C6.89266 1.41525 5.7834 2.07031 5.04679 3.12163C4.21847 4.30381 4.02531 5.75785 4.51685 7.111C6.44271 12.4126 10.5879 16.5578 15.8895 18.4836C17.2426 18.9752 18.6966 18.782 19.8788 17.9537C20.9302 17.2171 21.5852 16.1078 21.7232 14.8581L17.9991 14.06L16.2485 15.8106C16.0622 15.9969 15.7792 16.0464 15.5409 15.9343C11.8226 14.1875 8.81293 11.1778 7.06612 7.45962C6.95414 7.22123 7.00359 6.93819 7.18987 6.75195L8.94042 5.0014L8.14241 1.27729Z" fill="#4945FF"/>
</g>
<defs>
<clipPath id="clip0_60447_1178">
<rect width="20" height="20" fill="white" transform="translate(3)"/>
</clipPath>
</defs>
</svg>
