<svg width="50" height="56" viewBox="0 0 50 56" fill="none" xmlns="http://www.w3.org/2000/svg">
<ellipse rx="10.7608" ry="24.0514" transform="matrix(0.702661 0.711525 -0.594726 0.803928 21.8651 27.1377)" fill="#4945FF" fill-opacity="0.1"/>
<path d="M30.188 34.4548V14.2971C30.188 10.8192 27.3687 8 23.8909 8C20.4131 8 17.5939 10.8192 17.5939 14.2971V34.4459C12.1511 37.9184 10.5538 45.1458 14.0263 50.5886C16.1693 53.9474 19.8754 55.9836 23.8596 55.9911L23.9223 56C30.3785 55.9879 35.6025 50.7443 35.5904 44.2881C35.5829 40.3039 33.5468 36.5978 30.188 34.4548ZM18.9723 52.8884C14.233 50.1522 12.6093 44.092 15.3455 39.3527C16.2152 37.8464 17.466 36.5956 18.9723 35.7259C19.2504 35.5653 19.4211 35.2681 19.4199 34.9471V14.2971C19.4199 11.808 21.4377 9.79021 23.9267 9.79021C26.4158 9.79021 28.4336 11.808 28.4336 14.2971V34.9471C28.4324 35.2681 28.6031 35.5653 28.8811 35.7259C33.6205 38.4621 35.2442 44.5223 32.508 49.2615C29.7718 54.0009 23.7116 55.6247 18.9723 52.8884Z" fill="#4945FF"/>
<path d="M24.8169 37.8742V24.2955C24.8169 23.8012 24.4161 23.4004 23.9218 23.4004C23.4275 23.4004 23.0267 23.8012 23.0267 24.2955V37.8742C19.6453 38.3592 17.2973 41.4934 17.7822 44.8747C18.2199 47.9268 20.8385 50.1904 23.9218 50.1819C27.3378 50.1913 30.1146 47.4298 30.1241 44.0139C30.1326 40.9306 27.869 38.3119 24.8169 37.8742ZM23.9218 48.3828C21.4945 48.3828 19.5269 46.4151 19.5269 43.9878C19.5318 41.5626 21.4965 39.5978 23.9218 39.5928C26.3491 39.5928 28.3168 41.5605 28.3168 43.9878C28.3168 46.4151 26.349 48.3828 23.9218 48.3828Z" fill="#4945FF"/>
<path d="M38.9148 14.1538H33.3204C32.8261 14.1538 32.4253 14.5546 32.4253 15.0489C32.4253 15.5432 32.8261 15.944 33.3204 15.944H38.9148C39.4091 15.944 39.8099 15.5432 39.8099 15.0489C39.8099 14.5546 39.4091 14.1538 38.9148 14.1538Z" fill="#4945FF"/>
<path d="M37.7246 18.6294H34.4395C33.9452 18.6294 33.5444 19.0302 33.5444 19.5245C33.5444 20.0188 33.9452 20.4196 34.4395 20.4196H37.7246C38.2189 20.4196 38.6197 20.0188 38.6197 19.5245C38.6197 19.0302 38.2189 18.6294 37.7246 18.6294Z" fill="#4945FF"/>
<path d="M38.9148 23.105H33.3204C32.8261 23.105 32.4253 23.5058 32.4253 24.0001C32.4253 24.4944 32.8261 24.8952 33.3204 24.8952H38.9148C39.4091 24.8952 39.8099 24.4944 39.8099 24.0001C39.8099 23.5058 39.4091 23.105 38.9148 23.105Z" fill="#4945FF"/>
<path d="M37.7246 27.5806H34.4395C33.9452 27.5806 33.5444 27.9813 33.5444 28.4757C33.5444 28.97 33.9452 29.3708 34.4395 29.3708H37.7246C38.2189 29.3708 38.6197 28.97 38.6197 28.4757C38.6197 27.9813 38.2189 27.5806 37.7246 27.5806Z" fill="#4945FF"/>
<path d="M38.9148 32.0562H33.3204C32.8261 32.0562 32.4253 32.4569 32.4253 32.9513C32.4253 33.4456 32.8261 33.8463 33.3204 33.8463H38.9148C39.4091 33.8463 39.8099 33.4456 39.8099 32.9513C39.8099 32.4569 39.4091 32.0562 38.9148 32.0562Z" fill="#4945FF"/>
</svg>
