<svg width="44" height="47" viewBox="0 0 44 47" fill="none" xmlns="http://www.w3.org/2000/svg">
<ellipse cx="21.8652" cy="23.071" rx="10" ry="21.8571" transform="rotate(40.8765 21.8652 23.071)" fill="#4945FF" fill-opacity="0.1"/>
<g clip-path="url(#clip0_60447_547)">
<path d="M38.6423 23.4774L35.9185 22.2986L33.6055 17.7976C32.9804 16.5653 31.7123 15.7972 30.3281 15.8062H26.3451V14.6809C26.3451 12.6448 24.7198 10.9837 22.6836 10.9837H3.64395C1.60781 10.9837 0.000336802 12.6537 0.000336802 14.6809V31.9167C-0.017524 33.158 0.973753 34.1761 2.21508 34.1939C2.22401 34.1939 2.23294 34.1939 2.2508 34.1939H2.72412C2.72412 34.2832 2.71519 34.3189 2.71519 34.3725C2.70626 36.9266 4.76918 39.0074 7.32328 39.0163C9.87739 39.0253 11.9582 36.9623 11.9671 34.4082C11.9671 34.3904 11.9671 34.3815 11.9671 34.3636C11.9671 34.3011 11.9671 34.2743 11.9582 34.185H27.3453C27.3453 34.2743 27.3453 34.31 27.3453 34.3636C27.3364 36.9177 29.3993 38.9985 31.9534 39.0074C34.5075 39.0163 36.5883 36.9534 36.5972 34.3993C36.5972 34.3815 36.5972 34.3725 36.5972 34.3547C36.5972 34.2921 36.5972 34.2654 36.5972 34.1761H37.7492C38.9906 34.1761 39.9997 33.1669 39.9997 31.9256C39.9997 31.9167 39.9997 31.9077 39.9997 31.8899V25.5493C40.0176 24.6741 39.4817 23.8435 38.6423 23.4774ZM7.35008 37.2392C5.77832 37.2392 4.5102 35.9711 4.5102 34.3993C4.5102 32.8276 5.77832 31.5594 7.35008 31.5594C8.92183 31.5594 10.1899 32.8276 10.1899 34.3993C10.1899 35.9621 8.9129 37.2392 7.35008 37.2392ZM24.559 32.4257H11.5384C10.7883 30.7914 9.14509 29.7466 7.35008 29.7555C5.54613 29.7466 3.91186 30.7825 3.16171 32.4257H2.2508C1.97396 32.4257 1.78642 32.2114 1.78642 31.9345V27.3353H24.559V32.4257ZM24.559 14.6899V25.5493H1.78642V14.6899C1.78642 13.645 2.59909 12.7787 3.64395 12.7787H22.6836C23.7285 12.7877 24.5679 13.645 24.559 14.6809V14.6899ZM26.3451 17.6012H30.3281C31.0336 17.5923 31.6944 17.9763 32.0248 18.6103L33.8109 22.0664H26.3451V17.6012ZM31.9802 37.2392C30.4084 37.2392 29.1403 35.9711 29.1403 34.3993C29.1403 32.8276 30.4084 31.5594 31.9802 31.5594C33.5519 31.5594 34.8201 32.8276 34.8201 34.3993C34.8201 35.9621 33.5519 37.2392 31.9802 37.2392ZM38.2225 31.9345C38.2225 32.2114 38.035 32.4257 37.7582 32.4257H36.1686C35.088 30.1127 32.3374 29.1125 30.0244 30.1931C29.0421 30.6485 28.2473 31.4433 27.7918 32.4257H26.3451V23.8525H35.0969L37.9368 25.1027C38.1154 25.192 38.2315 25.3885 38.2225 25.585V31.9345Z" fill="#4945FF"/>
</g>
<defs>
<clipPath id="clip0_60447_547">
<rect width="40" height="40" fill="white" transform="translate(6.86646e-05 5)"/>
</clipPath>
</defs>
</svg>
