<svg width="40" height="40" viewBox="0 0 40 40" fill="none" xmlns="http://www.w3.org/2000/svg">
<g clip-path="url(#clip0_60447_77)">
<path d="M38.6422 18.4774L35.9184 17.2986L33.6054 12.7976C32.9803 11.5653 31.7122 10.7972 30.328 10.8062H26.345V9.68093C26.345 7.64479 24.7197 5.98373 22.6835 5.98373H3.64385C1.60771 5.98373 0.00023762 7.65372 0.00023762 9.68093V26.9167C-0.0176232 28.158 0.973654 29.1761 2.21498 29.1939C2.22391 29.1939 2.23284 29.1939 2.2507 29.1939H2.72402C2.72402 29.2832 2.71509 29.3189 2.71509 29.3725C2.70616 31.9266 4.76908 34.0074 7.32319 34.0163C9.87729 34.0253 11.9581 31.9623 11.967 29.4082C11.967 29.3904 11.967 29.3815 11.967 29.3636C11.967 29.3011 11.967 29.2743 11.9581 29.185H27.3452C27.3452 29.2743 27.3452 29.31 27.3452 29.3636C27.3363 31.9177 29.3992 33.9985 31.9533 34.0074C34.5074 34.0163 36.5882 31.9534 36.5971 29.3993C36.5971 29.3815 36.5971 29.3725 36.5971 29.3547C36.5971 29.2921 36.5971 29.2654 36.5971 29.1761H37.7491C38.9905 29.1761 39.9996 28.1669 39.9996 26.9256C39.9996 26.9167 39.9996 26.9077 39.9996 26.8899V20.5493C40.0175 19.6741 39.4816 18.8435 38.6422 18.4774ZM7.34998 32.2392C5.77822 32.2392 4.5101 30.9711 4.5101 29.3993C4.5101 27.8276 5.77822 26.5594 7.34998 26.5594C8.92173 26.5594 10.1899 27.8276 10.1899 29.3993C10.1899 30.9621 8.9128 32.2392 7.34998 32.2392ZM24.5589 27.4257H11.5383C10.7882 25.7914 9.14499 24.7466 7.34998 24.7555C5.54603 24.7466 3.91176 25.7825 3.16161 27.4257H2.2507C1.97386 27.4257 1.78632 27.2114 1.78632 26.9345V22.3353H24.5589V27.4257ZM24.5589 9.68986V20.5493H1.78632V9.68986C1.78632 8.645 2.59899 7.77875 3.64385 7.77875H22.6835C23.7284 7.78768 24.5678 8.645 24.5589 9.68093V9.68986ZM26.345 12.6012H30.328C31.0335 12.5923 31.6943 12.9763 32.0247 13.6103L33.8108 17.0664H26.345V12.6012ZM31.9801 32.2392C30.4083 32.2392 29.1402 30.9711 29.1402 29.3993C29.1402 27.8276 30.4083 26.5594 31.9801 26.5594C33.5518 26.5594 34.82 27.8276 34.82 29.3993C34.82 30.9621 33.5518 32.2392 31.9801 32.2392ZM38.2225 26.9345C38.2225 27.2114 38.0349 27.4257 37.7581 27.4257H36.1685C35.0879 25.1127 32.3373 24.1125 30.0243 25.1931C29.042 25.6485 28.2472 26.4433 27.7917 27.4257H26.345V18.8525H35.0968L37.9367 20.1027C38.1153 20.192 38.2314 20.3885 38.2225 20.585V26.9345Z" fill="#4945FF"/>
</g>
<defs>
<clipPath id="clip0_60447_77">
<rect width="40" height="40" fill="white"/>
</clipPath>
</defs>
</svg>
