<svg width="66" height="70" viewBox="0 0 66 70" fill="none" xmlns="http://www.w3.org/2000/svg">
<ellipse cx="32.7977" cy="34.6065" rx="15" ry="32.7857" transform="rotate(40.8765 32.7977 34.6065)" fill="#4945FF" fill-opacity="0.1"/>
<path d="M53.1688 58.6563C53.2563 58.411 53.3125 58.15 53.3125 57.875C53.3125 57.6 53.2563 57.3391 53.1688 57.0938H54.875V55.5313H53.3125V51.625C53.3125 51.193 52.9633 50.8438 52.5312 50.8438H50.1875V46.9375C50.1875 46.5055 49.8383 46.1563 49.4062 46.1563H48.625V36C48.625 35.568 48.2758 35.2188 47.8438 35.2188H18.1562C17.7242 35.2188 17.375 35.568 17.375 36V58.6563H14.25V29.9789L33 18.1735L51.75 29.9797V49.2813H53.3125V30.9633L53.6773 31.193C53.8062 31.2735 53.95 31.3125 54.093 31.3125C54.332 31.3125 54.5656 31.2031 54.7188 31L57.0625 27.875C57.1937 27.7008 57.2453 27.4797 57.2062 27.2656C57.1672 27.0516 57.0398 26.8633 56.8563 26.7469L33.4187 11.9031C33.1641 11.7414 32.8375 11.7414 32.5828 11.9031L9.14531 26.7469C8.96172 26.8633 8.83438 27.0516 8.79531 27.2656C8.75469 27.4797 8.80625 27.7008 8.9375 27.875L11.2812 31C11.525 31.3258 11.9781 31.4094 12.3227 31.193L12.6875 30.9633V58.6563H8.78125V60.2188H57.2188V58.6563H53.1688ZM12.0992 29.4867L10.6945 27.6141L33 13.4875L55.3055 27.6141L53.9008 29.4867L33.4164 16.5883C33.2891 16.5086 33.1445 16.4688 33 16.4688C32.8555 16.4688 32.7109 16.5086 32.5836 16.5883L12.0992 29.4867ZM51.75 57.875C51.75 58.3063 51.4 58.6563 50.9688 58.6563C50.5375 58.6563 50.1875 58.3063 50.1875 57.875C50.1875 57.4438 50.5375 57.0938 50.9688 57.0938C51.4 57.0938 51.75 57.4438 51.75 57.875ZM42.375 57.875C42.375 57.4438 42.725 57.0938 43.1562 57.0938C43.5875 57.0938 43.9375 57.4438 43.9375 57.875C43.9375 58.3063 43.5875 58.6563 43.1562 58.6563C42.725 58.6563 42.375 58.3063 42.375 57.875ZM40.8125 52.4063H42.375V53.9688H43.9375V52.4063H45.5V55.5313H40.8125V52.4063ZM45.3563 57.0938H48.7695C48.6813 57.3391 48.625 57.6 48.625 57.875C48.625 58.15 48.6812 58.411 48.7687 58.6563H45.3555C45.4437 58.411 45.5 58.15 45.5 57.875C45.5 57.6 45.4438 57.3391 45.3563 57.0938ZM51.75 55.5313H47.0625V52.4063H48.625V53.9688H50.1875V52.4063H51.75V55.5313ZM43.9375 50.8438V47.7188H45.5V49.2813H47.0625V47.7188H48.625V50.8438H43.9375ZM43.1562 46.1563C42.7242 46.1563 42.375 46.5055 42.375 46.9375V50.8438H40.8125V45.375C40.8125 44.943 40.4633 44.5938 40.0312 44.5938H36.9062V46.1563H39.25V56.3125C39.25 56.7446 39.5992 57.0938 40.0312 57.0938H40.9562C40.8687 57.3391 40.8125 57.6 40.8125 57.875C40.8125 58.15 40.8687 58.411 40.9562 58.6563H37.6875V54.75C37.6875 54.318 37.3383 53.9688 36.9062 53.9688H31.4375V50.0625C31.4375 49.6305 31.0883 49.2813 30.6562 49.2813H25.1875V45.375C25.1875 44.943 24.8383 44.5938 24.4062 44.5938H18.9375V43.0313H47.0625V46.1563H43.1562ZM18.9375 53.9688V50.8438H20.5V52.4063H22.0625V50.8438H23.625V53.9688H18.9375ZM22.0625 47.7188V46.1563H23.625V49.2813H18.9375V46.1563H20.5V47.7188H22.0625ZM28.3125 52.4063V50.8438H29.875V53.9688H25.1875V50.8438H26.75V52.4063H28.3125ZM25.1875 55.5313H26.75V57.0938H28.3125V55.5313H29.875V58.6563H25.1875V55.5313ZM31.4375 55.5313H33V57.0938H34.5625V55.5313H36.125V58.6563H31.4375V55.5313ZM47.0625 41.4688H18.9375V39.9063H47.0625V41.4688ZM47.0625 36.7813V38.3438H18.9375V36.7813H47.0625ZM18.9375 55.5313H20.5V57.0938H22.0625V55.5313H23.625V58.6563H18.9375V55.5313Z" fill="#4945FF"/>
<path d="M23.625 27.4062C23.193 27.4062 22.8438 27.7555 22.8438 28.1875V32.875C22.8438 33.307 23.193 33.6562 23.625 33.6562H42.375C42.807 33.6562 43.1562 33.307 43.1562 32.875V28.1875C43.1562 27.7555 42.807 27.4062 42.375 27.4062H23.625ZM41.5938 32.0938H24.4062V28.9688H41.5938V32.0938Z" fill="#4945FF"/>
</svg>
