<svg width="50" height="55" viewBox="0 0 50 55" fill="none" xmlns="http://www.w3.org/2000/svg">
<ellipse rx="10.7608" ry="24.0512" transform="matrix(0.702664 0.711522 -0.59473 0.803926 25.8651 27.4778)" fill="#4945FF" fill-opacity="0.1"/>
<path d="M46.3672 19.625H48.4375V21.1875H46.0938C45.9165 21.1875 45.7445 21.1272 45.6061 21.0166L45.1637 20.6631C42.9211 18.8689 40.4529 17.3765 37.8223 16.2241L30.9522 13.4995C30.9439 13.4963 30.9357 13.4929 30.9275 13.4897C30.6196 13.3551 30.2728 13.3394 29.9539 13.4455C29.6351 13.5516 29.3669 13.7722 29.2011 14.0645C29.0353 14.3568 28.9838 14.7001 29.0563 15.0283C29.1289 15.3564 29.3205 15.646 29.594 15.8411L35.5833 19.7524C35.67 19.8091 35.7446 19.8824 35.8026 19.9681C35.8607 20.0539 35.9012 20.1503 35.9216 20.2519C36.2346 21.5294 36.7959 22.7329 37.5736 23.7937C39.2115 25.9888 41.5265 26.9529 44.453 26.6605L44.6085 28.2152C44.2104 28.2551 43.8271 28.2746 43.4588 28.2738C39.7544 28.2738 37.5287 26.3669 36.2847 24.6784C35.5166 23.6198 34.9317 22.4398 34.5542 21.1875H21.3867V19.625H32.5311L28.7281 17.1414C28.7211 17.1368 28.714 17.1321 28.7071 17.1272C28.3863 16.9025 28.114 16.6156 27.9063 16.2836C27.6986 15.9515 27.5598 15.5811 27.4981 15.1943C27.4364 14.8076 27.4532 14.4123 27.5473 14.0321C27.6414 13.652 27.811 13.2946 28.046 12.9813C28.4393 12.4564 28.9979 12.0793 29.6317 11.9106C30.2655 11.742 30.9376 11.7917 31.5397 12.0518L38.411 14.7764C38.4195 14.7797 38.4279 14.7832 38.4362 14.7868C41.1968 15.9946 43.7867 17.5599 46.1395 19.4424L46.3672 19.625ZM17.334 14.9375L20.6224 30.7219L22.1521 30.4031L18.7489 14.0704C18.7238 11.8071 17.8077 9.64487 16.1993 8.05232C14.5909 6.45978 12.4197 5.56521 10.1562 5.5625H1.5625V7.125H10.1562C11.8852 7.1272 13.5529 7.7654 14.8416 8.91799C16.1304 10.0706 16.95 11.657 17.1444 13.375H12.4011C12.227 12.7046 11.8355 12.1109 11.288 11.6868C10.7404 11.2627 10.0676 11.0321 9.375 11.0312H1.5625V12.5938H9.375C9.77833 12.5944 10.1658 12.7509 10.4564 13.0306C10.747 13.3102 10.9183 13.6914 10.9344 14.0944L7.04639 33.5343L8.57861 33.8407L12.3593 14.9375H17.334ZM39.8895 31.9424C37.5367 30.0603 34.9469 28.4953 32.1865 27.2874C32.1808 27.285 32.1751 27.2824 32.1692 27.2802L28.7367 25.875H30.4688V24.3125H22.8841V25.875H23.5437C23.4942 25.9314 23.446 25.9894 23.4002 26.0503C23.1661 26.3625 22.9969 26.7185 22.9026 27.0971C22.8083 27.4758 22.7909 27.8695 22.8513 28.2551C22.9117 28.6406 23.0487 29.0101 23.2543 29.3418C23.4598 29.6735 23.7298 29.9607 24.0481 30.1863L26.5918 32.125H12.5C11.9049 32.1247 11.3221 32.2944 10.8202 32.6142C10.3183 32.9339 9.91817 33.3904 9.66696 33.9299C9.41574 34.4694 9.32387 35.0694 9.40216 35.6594C9.48046 36.2493 9.72565 36.8046 10.1089 37.2599C9.52332 37.6118 9.06923 38.1459 8.81613 38.7804C8.56303 39.415 8.52488 40.115 8.70752 40.7733C8.89015 41.4316 9.28351 42.0119 9.82736 42.4253C10.3712 42.8388 11.0356 43.0626 11.7188 43.0625H24.2188V41.5H11.7188C11.3043 41.5 10.9069 41.3354 10.6139 41.0424C10.3209 40.7493 10.1562 40.3519 10.1562 39.9375C10.1562 39.5231 10.3209 39.1257 10.6139 38.8326C10.9069 38.5396 11.3043 38.375 11.7188 38.375H24.2188V36.8125H12.5C12.0856 36.8125 11.6882 36.6479 11.3951 36.3549C11.1021 36.0618 10.9375 35.6644 10.9375 35.25C10.9375 34.8356 11.1021 34.4382 11.3951 34.1451C11.6882 33.8521 12.0856 33.6875 12.5 33.6875H28.9062C29.0697 33.6875 29.2291 33.6362 29.3618 33.5409C29.4946 33.4456 29.5942 33.311 29.6465 33.1561C29.6987 33.0013 29.7011 32.8339 29.6533 32.6776C29.6055 32.5213 29.5098 32.3839 29.3798 32.2849L24.9836 28.9348C24.9752 28.9284 24.9667 28.9222 24.9581 28.9162C24.6825 28.7227 24.4887 28.4337 24.4141 28.1054C24.3394 27.777 24.3894 27.4326 24.5542 27.139C24.7191 26.8454 24.9871 26.6235 25.3063 26.5162C25.6255 26.409 25.9731 26.4241 26.2818 26.5586C26.2876 26.561 26.2933 26.5636 26.2991 26.5658L31.5688 28.7229C34.2006 29.8755 36.6698 31.3682 38.9135 33.1629C39.1899 33.3837 39.4629 33.6875 39.8438 33.6875H48.4375V32.125H40.1179L39.8895 31.9424ZM40.2756 47.8325C38.4461 48.7473 33.774 50.875 29.9154 50.875H15.625C15.2106 50.875 14.8132 50.7104 14.5201 50.4174C14.2271 50.1243 14.0625 49.7269 14.0625 49.3125C14.0625 48.8981 14.2271 48.5007 14.5201 48.2076C14.8132 47.9146 15.2106 47.75 15.625 47.75H24.2188V46.1875H13.2812C12.867 46.187 12.4699 46.0222 12.1769 45.7293C11.884 45.4364 11.7192 45.0392 11.7188 44.625H10.1562C10.1571 45.3929 10.4403 46.1336 10.9519 46.7063C11.4635 47.2789 12.1678 47.6434 12.9308 47.7305C12.6518 48.2051 12.5032 48.745 12.5 49.2955C12.4969 49.846 12.6392 50.3876 12.9127 50.8654C13.1862 51.3432 13.5811 51.7402 14.0574 52.0163C14.5337 52.2924 15.0745 52.4377 15.625 52.4375H29.9154C31.6325 52.4375 35.3188 52.0289 40.8086 49.3125H48.4375V47.75H40.625C40.5037 47.75 40.3841 47.7782 40.2756 47.8325ZM14.1589 28.5552L14.7448 18.0083L13.1849 17.9218L12.5989 28.4687L14.1589 28.5552ZM15.7251 22.1294L16.4087 30.6255L17.9663 30.5001L17.2827 22.004L15.7251 22.1294ZM7.03125 36.8125C7.03125 37.2761 6.89379 37.7292 6.63626 38.1146C6.37872 38.5 6.01268 38.8004 5.58441 38.9778C5.15615 39.1552 4.6849 39.2016 4.23026 39.1112C3.77561 39.0208 3.358 38.7976 3.03022 38.4698C2.70244 38.142 2.47922 37.7244 2.38878 37.2697C2.29835 36.8151 2.34476 36.3439 2.52216 35.9156C2.69955 35.4873 2.99995 35.1213 3.38538 34.8637C3.77081 34.6062 4.22395 34.4688 4.6875 34.4688C5.30888 34.4695 5.9046 34.7166 6.34398 35.156C6.78336 35.5954 7.03053 36.1911 7.03125 36.8125ZM5.46875 36.8125C5.46875 36.658 5.42293 36.5069 5.33709 36.3785C5.25124 36.25 5.12923 36.1499 4.98647 36.0907C4.84372 36.0316 4.68663 36.0161 4.53509 36.0463C4.38354 36.0764 4.24433 36.1508 4.13507 36.2601C4.02581 36.3693 3.95141 36.5085 3.92126 36.6601C3.89112 36.8116 3.90659 36.9687 3.96572 37.1115C4.02485 37.2542 4.12498 37.3762 4.25346 37.4621C4.38194 37.5479 4.53298 37.5938 4.6875 37.5938C4.89463 37.5935 5.09321 37.5111 5.23967 37.3647C5.38613 37.2182 5.46852 37.0196 5.46875 36.8125ZM22.6562 18.0625C22.1927 18.0625 21.7396 17.925 21.3541 17.6675C20.9687 17.41 20.6683 17.0439 20.4909 16.6157C20.3135 16.1874 20.2671 15.7162 20.3575 15.2615C20.448 14.8069 20.6712 14.3892 20.999 14.0615C21.3267 13.7337 21.7444 13.5105 22.199 13.42C22.6537 13.3296 23.1249 13.376 23.5532 13.5534C23.9814 13.7308 24.3475 14.0312 24.605 14.4166C24.8625 14.8021 25 15.2552 25 15.7188C24.9993 16.3401 24.7521 16.9359 24.3127 17.3752C23.8734 17.8146 23.2776 18.0618 22.6562 18.0625ZM22.6562 16.5C22.8108 16.5 22.9618 16.4542 23.0903 16.3683C23.2188 16.2825 23.3189 16.1605 23.378 16.0177C23.4372 15.875 23.4526 15.7179 23.4225 15.5663C23.3923 15.4148 23.3179 15.2756 23.2087 15.1663C23.0994 15.0571 22.9602 14.9827 22.8087 14.9525C22.6571 14.9224 22.5 14.9378 22.3573 14.997C22.2145 15.0561 22.0925 15.1562 22.0067 15.2847C21.9208 15.4132 21.875 15.5642 21.875 15.7188C21.8752 15.9259 21.9576 16.1245 22.1041 16.2709C22.2505 16.4174 22.4491 16.4998 22.6562 16.5ZM30.4688 44.625C30.0052 44.625 29.5521 44.4875 29.1666 44.23C28.7812 43.9725 28.4808 43.6064 28.3034 43.1782C28.126 42.7499 28.0796 42.2787 28.17 41.824C28.2605 41.3694 28.4837 40.9517 28.8115 40.624C29.1392 40.2962 29.5569 40.073 30.0115 39.9825C30.4662 39.8921 30.9374 39.9385 31.3657 40.1159C31.7939 40.2933 32.16 40.5937 32.4175 40.9791C32.675 41.3646 32.8125 41.8177 32.8125 42.2812C32.8118 42.9026 32.5646 43.4983 32.1252 43.9377C31.6859 44.3771 31.0901 44.6243 30.4688 44.625ZM30.4688 43.0625C30.6233 43.0625 30.7743 43.0167 30.9028 42.9308C31.0313 42.845 31.1314 42.723 31.1905 42.5802C31.2497 42.4375 31.2651 42.2804 31.235 42.1288C31.2048 41.9773 31.1304 41.8381 31.0212 41.7288C30.9119 41.6196 30.7727 41.5452 30.6212 41.515C30.4696 41.4849 30.3125 41.5003 30.1698 41.5595C30.027 41.6186 29.905 41.7187 29.8192 41.8472C29.7333 41.9757 29.6875 42.1267 29.6875 42.2812C29.6877 42.4884 29.7701 42.687 29.9166 42.8334C30.063 42.9799 30.2616 43.0623 30.4688 43.0625Z" fill="#4945FF"/>
</svg>
