<svg width="100" height="100" viewBox="0 0 100 100" fill="none" xmlns="http://www.w3.org/2000/svg">
<circle opacity="0.2" cx="50" cy="50" r="50" fill="white"/>
<path d="M67.5845 65.5814L57.9159 55.9128C59.7887 53.5994 60.9163 50.6598 60.9163 47.4582C60.9163 40.0378 54.8786 34 47.4581 34C40.0377 34 34 40.0377 34 47.4581C34 54.8786 40.0378 60.9164 47.4582 60.9164C50.6598 60.9164 53.5994 59.7887 55.9128 57.9159L65.5814 67.5845C65.8577 67.8608 66.2203 67.9996 66.583 67.9996C66.9457 67.9996 67.3083 67.8608 67.5846 67.5845C68.1385 67.0307 68.1385 66.1353 67.5845 65.5814ZM47.4582 58.083C41.5989 58.083 36.8333 53.3174 36.8333 47.4581C36.8333 41.5989 41.5989 36.8333 47.4582 36.8333C53.3175 36.8333 58.0831 41.5989 58.0831 47.4581C58.0831 53.3174 53.3174 58.083 47.4582 58.083Z" fill="white"/>
</svg>
